<?xml version="1.0" encoding="UTF-8"?>
<!--Generator: CustomSymbols by @serious_bret-->
<!DOCTYPE svg
PUBLIC "-//W3C//DTD SVG 1.1//EN"
       "http://www.w3.org/Graphics/SVG/1.1/DTD/svg11.dtd">
<svg version="1.1" xmlns="http://www.w3.org/2000/svg" xmlns:xlink="http://www.w3.org/1999/xlink" width="3300" height="2200">
 <g id="Notes">
  <rect height="2200" id="artboard" style="fill:white;opacity:1" width="3300" x="0" y="0"/>
  <line id="" style="fill:none;stroke:black;opacity:1;stroke-width:0.5;" x1="263" x2="3036" y1="292" y2="292"/>
  <text id="reftext1" style="stroke:none;fill:black;font-family:-apple-system,&quot;SF Pro Display&quot;,&quot;SF Pro Text&quot;,Helvetica,sans-serif;font-weight:bold;" transform="matrix(1 0 0 1 263 322)">Weight/Scale Variations</text>
  <text id="reftext2" style="stroke:none;fill:black;font-family:-apple-system,&quot;SF Pro Display&quot;,&quot;SF Pro Text&quot;,Helvetica,sans-serif;text-anchor:middle;" transform="matrix(1 0 0 1 559.711 322)">Ultralight</text>
  <text style="stroke:none;fill:black;font-family:-apple-system,&quot;SF Pro Display&quot;,&quot;SF Pro Text&quot;,Helvetica,sans-serif;text-anchor:middle;" transform="matrix(1 0 0 1 856.422 322)">Thin</text>
  <text style="stroke:none;fill:black;font-family:-apple-system,&quot;SF Pro Display&quot;,&quot;SF Pro Text&quot;,Helvetica,sans-serif;text-anchor:middle;" transform="matrix(1 0 0 1 1153.13 322)">Light</text>
  <text style="stroke:none;fill:black;font-family:-apple-system,&quot;SF Pro Display&quot;,&quot;SF Pro Text&quot;,Helvetica,sans-serif;text-anchor:middle;" transform="matrix(1 0 0 1 1449.84 322)">Regular</text>
  <text style="stroke:none;fill:black;font-family:-apple-system,&quot;SF Pro Display&quot;,&quot;SF Pro Text&quot;,Helvetica,sans-serif;text-anchor:middle;" transform="matrix(1 0 0 1 1746.56 322)">Medium</text>
  <text style="stroke:none;fill:black;font-family:-apple-system,&quot;SF Pro Display&quot;,&quot;SF Pro Text&quot;,Helvetica,sans-serif;text-anchor:middle;" transform="matrix(1 0 0 1 2043.27 322)">Semibold</text>
  <text style="stroke:none;fill:black;font-family:-apple-system,&quot;SF Pro Display&quot;,&quot;SF Pro Text&quot;,Helvetica,sans-serif;text-anchor:middle;" transform="matrix(1 0 0 1 2339.98 322)">Bold</text>
  <text style="stroke:none;fill:black;font-family:-apple-system,&quot;SF Pro Display&quot;,&quot;SF Pro Text&quot;,Helvetica,sans-serif;text-anchor:middle;" transform="matrix(1 0 0 1 2636.69 322)">Heavy</text>
  <text style="stroke:none;fill:black;font-family:-apple-system,&quot;SF Pro Display&quot;,&quot;SF Pro Text&quot;,Helvetica,sans-serif;text-anchor:middle;" transform="matrix(1 0 0 1 2933.4 322)">Black</text>
  <line id="" style="fill:none;stroke:black;opacity:1;stroke-width:0.5;" x1="263" x2="3036" y1="1903" y2="1903"/>
  <g id="" transform="matrix(1 0 0 1 263 1933)">
   <path d="M9.24805 0.830078C13.5547 0.830078 17.1387-2.74414 17.1387-7.05078C17.1387-11.3574 13.5449-14.9316 9.23828-14.9316C4.94141-14.9316 1.36719-11.3574 1.36719-7.05078C1.36719-2.74414 4.95117 0.830078 9.24805 0.830078ZM9.24805-0.654297C5.70312-0.654297 2.87109-3.49609 2.87109-7.05078C2.87109-10.6055 5.69336-13.4473 9.23828-13.4473C12.793-13.4473 15.6348-10.6055 15.6445-7.05078C15.6543-3.49609 12.8027-0.654297 9.24805-0.654297ZM6.39648-6.31836L8.50586-6.31836L8.50586-4.19922C8.50586-3.75977 8.79883-3.45703 9.22852-3.45703C9.67773-3.45703 9.9707-3.75977 9.9707-4.19922L9.9707-6.31836L12.0996-6.31836C12.5391-6.31836 12.8418-6.61133 12.8418-7.04102C12.8418-7.48047 12.5391-7.7832 12.0996-7.7832L9.9707-7.7832L9.9707-9.89258C9.9707-10.3418 9.67773-10.6445 9.22852-10.6445C8.79883-10.6445 8.50586-10.3418 8.50586-9.89258L8.50586-7.7832L6.39648-7.7832C5.94727-7.7832 5.64453-7.48047 5.64453-7.04102C5.64453-6.61133 5.94727-6.31836 6.39648-6.31836Z"/>
  </g>
  <g id="" transform="matrix(1 0 0 1 281.506 1933)">
   <path d="M11.709 2.91016C17.1582 2.91016 21.6699-1.61133 21.6699-7.05078C21.6699-12.5 17.1484-17.0117 11.6992-17.0117C6.25977-17.0117 1.74805-12.5 1.74805-7.05078C1.74805-1.61133 6.26953 2.91016 11.709 2.91016ZM11.709 1.25C7.09961 1.25 3.41797-2.44141 3.41797-7.05078C3.41797-11.6602 7.08984-15.3516 11.6992-15.3516C16.3086-15.3516 20-11.6602 20.0098-7.05078C20.0195-2.44141 16.3184 1.25 11.709 1.25ZM7.98828-6.23047L10.8789-6.23047L10.8789-3.32031C10.8789-2.83203 11.2109-2.5 11.6895-2.5C12.1777-2.5 12.5195-2.83203 12.5195-3.32031L12.5195-6.23047L15.4297-6.23047C15.918-6.23047 16.25-6.5625 16.25-7.04102C16.25-7.5293 15.918-7.87109 15.4297-7.87109L12.5195-7.87109L12.5195-10.7617C12.5195-11.2695 12.1777-11.6016 11.6895-11.6016C11.2109-11.6016 10.8789-11.2598 10.8789-10.7617L10.8789-7.87109L7.98828-7.87109C7.48047-7.87109 7.14844-7.5293 7.14844-7.04102C7.14844-6.5625 7.49023-6.23047 7.98828-6.23047Z"/>
  </g>
  <g id="" transform="matrix(1 0 0 1 304.924 1933)">
   <path d="M14.9707 5.66406C21.9336 5.66406 27.6953-0.0976562 27.6953-7.05078C27.6953-14.0137 21.9238-19.7754 14.9609-19.7754C8.00781-19.7754 2.25586-14.0137 2.25586-7.05078C2.25586-0.0976562 8.01758 5.66406 14.9707 5.66406ZM14.9707 3.84766C8.93555 3.84766 4.08203-1.01562 4.08203-7.05078C4.08203-13.0957 8.92578-17.9492 14.9609-17.9492C21.0059-17.9492 25.8594-13.0957 25.8691-7.05078C25.8789-1.01562 21.0156 3.84766 14.9707 3.84766ZM10.0586-6.14258L14.0625-6.14258L14.0625-2.12891C14.0625-1.5918 14.4336-1.2207 14.9512-1.2207C15.4883-1.2207 15.8594-1.5918 15.8594-2.12891L15.8594-6.14258L19.8828-6.14258C20.4102-6.14258 20.791-6.51367 20.791-7.03125C20.791-7.56836 20.4199-7.94922 19.8828-7.94922L15.8594-7.94922L15.8594-11.9531C15.8594-12.5098 15.4883-12.8809 14.9512-12.8809C14.4336-12.8809 14.0625-12.5 14.0625-11.9531L14.0625-7.94922L10.0586-7.94922C9.50195-7.94922 9.13086-7.56836 9.13086-7.03125C9.13086-6.51367 9.51172-6.14258 10.0586-6.14258Z"/>
  </g>
  <text style="stroke:none;fill:black;font-family:-apple-system,&quot;SF Pro Display&quot;,&quot;SF Pro Text&quot;,Helvetica,sans-serif;font-weight:bold;" transform="matrix(1 0 0 1 263 1953)">Design Variations</text>
  <text style="stroke:none;fill:black;font-family:-apple-system,&quot;SF Pro Display&quot;,&quot;SF Pro Text&quot;,Helvetica,sans-serif;" transform="matrix(1 0 0 1 263 1971)">Symbols are supported in up to nine weights and three scales.</text>
  <text style="stroke:none;fill:black;font-family:-apple-system,&quot;SF Pro Display&quot;,&quot;SF Pro Text&quot;,Helvetica,sans-serif;" transform="matrix(1 0 0 1 263 1989)">For optimal layout with text and other symbols, vertically align</text>
  <text style="stroke:none;fill:black;font-family:-apple-system,&quot;SF Pro Display&quot;,&quot;SF Pro Text&quot;,Helvetica,sans-serif;" transform="matrix(1 0 0 1 263 2007)">symbols with the adjacent text.</text>
  <line id="" style="fill:none;stroke:#00AEEF;stroke-width:0.5;opacity:1.0;" x1="776" x2="776" y1="1919" y2="1933"/>
  <g id="" transform="matrix(1 0 0 1 776 1933)">
   <path d="M3.31055 0.126953C3.82812 0.126953 4.08203-0.0683594 4.26758-0.605469L5.52734-4.0625L11.2891-4.0625L12.5488-0.605469C12.7344-0.0683594 12.9883 0.126953 13.4961 0.126953C14.0137 0.126953 14.3457-0.185547 14.3457-0.673828C14.3457-0.839844 14.3164-0.986328 14.2383-1.20117L9.6582-13.3887C9.43359-13.9941 9.0332-14.2871 8.4082-14.2871C7.80273-14.2871 7.39258-13.9941 7.17773-13.3984L2.59766-1.19141C2.51953-0.976562 2.49023-0.830078 2.49023-0.664062C2.49023-0.175781 2.80273 0.126953 3.31055 0.126953ZM6.00586-5.53711L8.37891-12.1094L8.42773-12.1094L10.8008-5.53711Z"/>
  </g>
  <line id="" style="fill:none;stroke:#00AEEF;stroke-width:0.5;opacity:1.0;" x1="792.836" x2="792.836" y1="1919" y2="1933"/>
  <text style="stroke:none;fill:black;font-family:-apple-system,&quot;SF Pro Display&quot;,&quot;SF Pro Text&quot;,Helvetica,sans-serif;font-weight:bold;" transform="matrix(1 0 0 1 776 1953)">Margins</text>
  <text style="stroke:none;fill:black;font-family:-apple-system,&quot;SF Pro Display&quot;,&quot;SF Pro Text&quot;,Helvetica,sans-serif;" transform="matrix(1 0 0 1 776 1971)">Leading and trailing margins on the left and right side of each symbol</text>
  <text style="stroke:none;fill:black;font-family:-apple-system,&quot;SF Pro Display&quot;,&quot;SF Pro Text&quot;,Helvetica,sans-serif;" transform="matrix(1 0 0 1 776 1989)">can be adjusted by modifying the x-location of the margin guidelines.</text>
  <text style="stroke:none;fill:black;font-family:-apple-system,&quot;SF Pro Display&quot;,&quot;SF Pro Text&quot;,Helvetica,sans-serif;" transform="matrix(1 0 0 1 776 2007)">Modifications are automatically applied proportionally to all</text>
  <text style="stroke:none;fill:black;font-family:-apple-system,&quot;SF Pro Display&quot;,&quot;SF Pro Text&quot;,Helvetica,sans-serif;" transform="matrix(1 0 0 1 776 2025)">scales and weights.</text>
  <g id="" transform="matrix(1 0 0 1 1289 1933)">
   <path d="M2.8418 1.86523L4.54102 3.57422C5.40039 4.44336 6.38672 4.38477 7.31445 3.35938L17.4902-7.85156C17.7539-7.76367 18.0273-7.7832 18.3398-7.8418L19.4043-8.03711L20.0684-7.36328L20.0293-6.80664C19.9902-6.30859 20.1172-5.92773 20.6055-5.44922L21.3672-4.70703C21.8457-4.22852 22.4609-4.19922 22.9297-4.66797L25.8398-7.58789C26.3086-8.05664 26.2891-8.65234 25.8105-9.13086L25.0391-9.89258C24.5605-10.3711 24.1895-10.5273 23.7109-10.4883L23.1348-10.4395L22.4902-11.0742L22.7344-12.1973C22.8613-12.7637 22.7051-13.2031 22.1191-13.7891L19.9219-15.9766C16.582-19.2969 12.1484-19.2188 9.25781-16.3281C8.83789-15.918 8.80859-15.3418 9.04297-14.9512C9.27734-14.5898 9.73633-14.3555 10.3809-14.5215C11.8457-14.8633 13.3691-14.9219 14.7949-13.9844L14.209-12.5293C14.0137-12.0508 13.9844-11.6504 14.1113-11.2891L3.04688-0.898438C2.06055 0.0195312 1.98242 0.996094 2.8418 1.86523ZM10.752-15.957C13.1836-17.7344 16.4746-17.4316 18.7012-15.2051L21.1328-12.793C21.3672-12.5586 21.4062-12.373 21.3379-12.0312L21.0156-10.5469L22.5195-9.0625L23.5059-9.12109C23.7598-9.13086 23.8379-9.11133 24.0332-8.91602L24.6094-8.33984L22.168-5.89844L21.5918-6.47461C21.3965-6.66992 21.3672-6.74805 21.377-7.01172L21.4453-7.98828L19.9512-9.47266L18.4277-9.21875C18.1055-9.15039 17.959-9.17969 17.7148-9.41406L15.7129-11.416C15.459-11.6504 15.4297-11.8164 15.5859-12.1875L16.4648-14.2773C14.9023-15.7324 12.8711-16.3574 10.8398-15.7617C10.6836-15.7227 10.625-15.8496 10.752-15.957ZM5.27344 2.30469L4.10156 1.14258C3.63281 0.683594 3.74023 0.341797 4.14062-0.0195312L14.9512-10.1953L16.416-8.71094L6.42578 2.27539C6.07422 2.67578 5.74219 2.77344 5.27344 2.30469Z"/>
  </g>
  <text style="stroke:none;fill:black;font-family:-apple-system,&quot;SF Pro Display&quot;,&quot;SF Pro Text&quot;,Helvetica,sans-serif;font-weight:bold;" transform="matrix(1 0 0 1 1289 1953)">Exporting</text>
  <text style="stroke:none;fill:black;font-family:-apple-system,&quot;SF Pro Display&quot;,&quot;SF Pro Text&quot;,Helvetica,sans-serif;" transform="matrix(1 0 0 1 1289 1971)">Symbols should be outlined when exporting to ensure the</text>
  <text style="stroke:none;fill:black;font-family:-apple-system,&quot;SF Pro Display&quot;,&quot;SF Pro Text&quot;,Helvetica,sans-serif;" transform="matrix(1 0 0 1 1289 1989)">design is preserved when submitting to Xcode.</text>
  <text id="template-version" style="stroke:none;fill:black;font-family:-apple-system,&quot;SF Pro Display&quot;,&quot;SF Pro Text&quot;,Helvetica,sans-serif;text-anchor:end;" transform="matrix(1 0 0 1 3036 1933)">Template v.2.0</text>
  <text style="stroke:none;fill:black;font-family:-apple-system,&quot;SF Pro Display&quot;,&quot;SF Pro Text&quot;,Helvetica,sans-serif;text-anchor:end;" transform="matrix(1 0 0 1 3036 1951)">Requires Xcode 12 or greater</text>
  <text style="stroke:none;fill:black;font-family:-apple-system,&quot;SF Pro Display&quot;,&quot;SF Pro Text&quot;,Helvetica,sans-serif;" transform="matrix(1 0 0 1 263 726)">Small</text>
  <text style="stroke:none;fill:black;font-family:-apple-system,&quot;SF Pro Display&quot;,&quot;SF Pro Text&quot;,Helvetica,sans-serif;" transform="matrix(1 0 0 1 263 1156)">Medium</text>
  <text style="stroke:none;fill:black;font-family:-apple-system,&quot;SF Pro Display&quot;,&quot;SF Pro Text&quot;,Helvetica,sans-serif;" transform="matrix(1 0 0 1 263 1586)">Large</text>
 </g>
 <g id="Guides">
  <g id="H-reference" style="fill:#27AAE1;stroke:none;" transform="matrix(1 0 0 1 339 696)">
   <path d="M0.976562 0L3.66211 0L12.9883-24.4629L45.752-24.4629L55.127 0L57.7637 0L30.6152-70.459L28.125-70.459ZM29.3457-67.1387L29.4434-67.1387L44.873-26.709L13.8672-26.709Z"/>
  </g>
  <line id="Baseline-S" style="fill:none;stroke:#27AAE1;opacity:1;stroke-width:0.5;" x1="263" x2="3036" y1="696" y2="696"/>
  <line id="Capline-S" style="fill:none;stroke:#27AAE1;opacity:1;stroke-width:0.5;" x1="263" x2="3036" y1="625.541" y2="625.541"/>
  <g id="H-reference" style="fill:#27AAE1;stroke:none;" transform="matrix(1 0 0 1 339 1126)">
   <path d="M0.976562 0L3.66211 0L12.9883-24.4629L45.752-24.4629L55.127 0L57.7637 0L30.6152-70.459L28.125-70.459ZM29.3457-67.1387L29.4434-67.1387L44.873-26.709L13.8672-26.709Z"/>
  </g>
  <line id="Baseline-M" style="fill:none;stroke:#27AAE1;opacity:1;stroke-width:0.5;" x1="263" x2="3036" y1="1126" y2="1126"/>
  <line id="Capline-M" style="fill:none;stroke:#27AAE1;opacity:1;stroke-width:0.5;" x1="263" x2="3036" y1="1055.54" y2="1055.54"/>
  <g id="H-reference" style="fill:#27AAE1;stroke:none;" transform="matrix(1 0 0 1 339 1556)">
   <path d="M0.976562 0L3.66211 0L12.9883-24.4629L45.752-24.4629L55.127 0L57.7637 0L30.6152-70.459L28.125-70.459ZM29.3457-67.1387L29.4434-67.1387L44.873-26.709L13.8672-26.709Z"/>
  </g>
  <line id="Baseline-L" style="fill:none;stroke:#27AAE1;opacity:1;stroke-width:0.5;" x1="263" x2="3036" y1="1556" y2="1556"/>
  <line id="Capline-L" style="fill:none;stroke:#27AAE1;opacity:1;stroke-width:0.5;" x1="263" x2="3036" y1="1485.54" y2="1485.54"/>
  <line id="left-margin" x1="1407.1713975046641" x2="1407.1713975046641" y1="1030.79" y2="1150.12" style="fill:none;stroke:#00AEEF;stroke-width:0.5;opacity:1.0;"/>
  <line id="right-margin" x1="1495.0886024953356" x2="1495.0886024953356" y1="1030.79" y2="1150.12" style="fill:none;stroke:#00AEEF;stroke-width:0.5;opacity:1.0;"/>
 </g>
 <g id="Symbols">
  <g id="Black-L" transform="matrix(1.0,0.0,0.0,1.0,2866.8491420825558,1452.939161613806)">  <path stroke-width="1.7280001373291043" stroke-linecap="butt" fill-rule="nonzero" stroke-opacity="1" stroke-miterlimit="4" fill="#000000" stroke-dasharray="none" stroke-linejoin="miter" fill-opacity="1" stroke="none" d="M83.036,135.21C87.714,136.708,92.733,134.199,94.341,129.557L133.401,19.049C134.962,14.257,132.342,9.107,127.55,7.546C122.758,5.985,117.608,8.605,116.047,13.397L113.051,21.536C112.819,22.159,112.183,22.536,111.525,22.441L59.182,16.11C58.737,16.066,58.339,15.815,58.108,15.432C57.942,15.053,57.942,14.623,58.108,14.244L58.956,11.927C60.517,7.135,57.898,1.985,53.106,0.424C48.314,-1.137,43.164,1.482,41.603,6.274L2.261,115.539C0.7,120.331,3.319,125.481,8.111,127.042C12.903,128.602,18.054,125.983,19.614,121.191L21.536,115.539C21.764,114.938,22.368,114.567,23.006,114.634L76.592,119.948C77.017,120.008,77.391,120.257,77.61,120.626C77.777,121.004,77.777,121.435,77.61,121.813L77.045,123.509C76.231,125.854,76.411,128.429,77.543,130.638C78.674,132.847,80.658,134.499,83.036,135.21ZM53.134,27.867C53.325,27.237,53.956,26.849,54.604,26.963L107.399,33.294C107.83,33.336,108.211,33.591,108.416,33.972C108.583,34.35,108.583,34.781,108.416,35.159L102.933,50.873C102.922,50.977,102.864,51.069,102.776,51.124C102.688,51.179,102.579,51.191,102.481,51.156L48.612,45.503C48.192,45.473,47.813,45.241,47.595,44.881C47.431,44.483,47.431,44.036,47.595,43.638ZM42.507,57.374C42.768,56.808,43.357,56.468,43.977,56.526L97.168,61.839C97.613,61.883,98.011,62.134,98.242,62.517C98.443,62.888,98.443,63.334,98.242,63.704L92.985,79.136C92.742,79.724,92.149,80.089,91.515,80.04L38.324,74.388C37.853,74.28,37.469,73.939,37.307,73.483C37.137,73.086,37.137,72.637,37.307,72.24ZM27.641,103.951C27.217,103.891,26.842,103.641,26.624,103.272C26.457,102.894,26.457,102.464,26.624,102.085L32.276,86.032C32.514,85.354,33.208,84.948,33.915,85.071L87.219,90.724C87.639,90.754,88.018,90.986,88.237,91.346C88.4,91.744,88.4,92.191,88.237,92.589L82.584,108.36C82.374,108.974,81.758,109.353,81.114,109.264ZM27.641,103.951"/>
</g>
  <g id="Heavy-L" transform="matrix(1.0,0.0,0.0,1.0,2570.1391420825557,1452.939161613806)">  <path stroke="none" fill="#000000" stroke-width="1.7280001373291043" stroke-dasharray="none" fill-rule="nonzero" stroke-linecap="butt" stroke-miterlimit="4" fill-opacity="1" stroke-opacity="1" stroke-linejoin="miter" d="M83.036,135.21C87.714,136.708,92.733,134.199,94.341,129.557L133.401,19.049C134.962,14.257,132.342,9.107,127.55,7.546C122.758,5.985,117.608,8.605,116.047,13.397L113.051,21.536C112.819,22.159,112.183,22.536,111.525,22.441L59.182,16.11C58.737,16.066,58.339,15.815,58.108,15.432C57.942,15.053,57.942,14.623,58.108,14.244L58.956,11.927C60.517,7.135,57.898,1.985,53.106,0.424C48.314,-1.137,43.164,1.482,41.603,6.274L2.261,115.539C0.7,120.331,3.319,125.481,8.111,127.042C12.903,128.602,18.054,125.983,19.614,121.191L21.536,115.539C21.764,114.938,22.368,114.567,23.006,114.634L76.592,119.948C77.017,120.008,77.391,120.257,77.61,120.626C77.777,121.004,77.777,121.435,77.61,121.813L77.045,123.509C76.231,125.854,76.411,128.429,77.543,130.638C78.674,132.847,80.658,134.499,83.036,135.21ZM53.134,27.867C53.325,27.237,53.956,26.849,54.604,26.963L107.399,33.294C107.83,33.336,108.211,33.591,108.416,33.972C108.583,34.35,108.583,34.781,108.416,35.159L102.933,50.873C102.922,50.977,102.864,51.069,102.776,51.124C102.688,51.179,102.579,51.191,102.481,51.156L48.612,45.503C48.192,45.473,47.813,45.241,47.595,44.881C47.431,44.483,47.431,44.036,47.595,43.638ZM42.507,57.374C42.768,56.808,43.357,56.468,43.977,56.526L97.168,61.839C97.613,61.883,98.011,62.134,98.242,62.517C98.443,62.888,98.443,63.334,98.242,63.704L92.985,79.136C92.742,79.724,92.149,80.089,91.515,80.04L38.324,74.388C37.853,74.28,37.469,73.939,37.307,73.483C37.137,73.086,37.137,72.637,37.307,72.24ZM27.641,103.951C27.217,103.891,26.842,103.641,26.624,103.272C26.457,102.894,26.457,102.464,26.624,102.085L32.276,86.032C32.514,85.354,33.208,84.948,33.915,85.071L87.219,90.724C87.639,90.754,88.018,90.986,88.237,91.346C88.4,91.744,88.4,92.191,88.237,92.589L82.584,108.36C82.374,108.974,81.758,109.353,81.114,109.264ZM27.641,103.951"/>
</g>
  <g id="Bold-L" transform="matrix(1.0,0.0,0.0,1.0,2273.4291420825557,1452.939161613806)">  <path stroke-opacity="1" fill-rule="nonzero" stroke-dasharray="none" stroke-linecap="butt" stroke-width="1.7280001373291043" stroke-miterlimit="4" stroke-linejoin="miter" fill-opacity="1" fill="#000000" stroke="none" d="M83.036,135.21C87.714,136.708,92.733,134.199,94.341,129.557L133.401,19.049C134.962,14.257,132.342,9.107,127.55,7.546C122.758,5.985,117.608,8.605,116.047,13.397L113.051,21.536C112.819,22.159,112.183,22.536,111.525,22.441L59.182,16.11C58.737,16.066,58.339,15.815,58.108,15.432C57.942,15.053,57.942,14.623,58.108,14.244L58.956,11.927C60.517,7.135,57.898,1.985,53.106,0.424C48.314,-1.137,43.164,1.482,41.603,6.274L2.261,115.539C0.7,120.331,3.319,125.481,8.111,127.042C12.903,128.602,18.054,125.983,19.614,121.191L21.536,115.539C21.764,114.938,22.368,114.567,23.006,114.634L76.592,119.948C77.017,120.008,77.391,120.257,77.61,120.626C77.777,121.004,77.777,121.435,77.61,121.813L77.045,123.509C76.231,125.854,76.411,128.429,77.543,130.638C78.674,132.847,80.658,134.499,83.036,135.21ZM53.134,27.867C53.325,27.237,53.956,26.849,54.604,26.963L107.399,33.294C107.83,33.336,108.211,33.591,108.416,33.972C108.583,34.35,108.583,34.781,108.416,35.159L102.933,50.873C102.922,50.977,102.864,51.069,102.776,51.124C102.688,51.179,102.579,51.191,102.481,51.156L48.612,45.503C48.192,45.473,47.813,45.241,47.595,44.881C47.431,44.483,47.431,44.036,47.595,43.638ZM42.507,57.374C42.768,56.808,43.357,56.468,43.977,56.526L97.168,61.839C97.613,61.883,98.011,62.134,98.242,62.517C98.443,62.888,98.443,63.334,98.242,63.704L92.985,79.136C92.742,79.724,92.149,80.089,91.515,80.04L38.324,74.388C37.853,74.28,37.469,73.939,37.307,73.483C37.137,73.086,37.137,72.637,37.307,72.24ZM27.641,103.951C27.217,103.891,26.842,103.641,26.624,103.272C26.457,102.894,26.457,102.464,26.624,102.085L32.276,86.032C32.514,85.354,33.208,84.948,33.915,85.071L87.219,90.724C87.639,90.754,88.018,90.986,88.237,91.346C88.4,91.744,88.4,92.191,88.237,92.589L82.584,108.36C82.374,108.974,81.758,109.353,81.114,109.264ZM27.641,103.951"/>
</g>
  <g id="Semibold-L" transform="matrix(1.0,0.0,0.0,1.0,1976.719142082556,1452.939161613806)">  <path stroke-linecap="butt" stroke-opacity="1" stroke-dasharray="none" fill-rule="nonzero" fill-opacity="1" stroke-miterlimit="4" fill="#000000" stroke-width="1.7280001373291043" stroke-linejoin="miter" stroke="none" d="M83.036,135.21C87.714,136.708,92.733,134.199,94.341,129.557L133.401,19.049C134.962,14.257,132.342,9.107,127.55,7.546C122.758,5.985,117.608,8.605,116.047,13.397L113.051,21.536C112.819,22.159,112.183,22.536,111.525,22.441L59.182,16.11C58.737,16.066,58.339,15.815,58.108,15.432C57.942,15.053,57.942,14.623,58.108,14.244L58.956,11.927C60.517,7.135,57.898,1.985,53.106,0.424C48.314,-1.137,43.164,1.482,41.603,6.274L2.261,115.539C0.7,120.331,3.319,125.481,8.111,127.042C12.903,128.602,18.054,125.983,19.614,121.191L21.536,115.539C21.764,114.938,22.368,114.567,23.006,114.634L76.592,119.948C77.017,120.008,77.391,120.257,77.61,120.626C77.777,121.004,77.777,121.435,77.61,121.813L77.045,123.509C76.231,125.854,76.411,128.429,77.543,130.638C78.674,132.847,80.658,134.499,83.036,135.21ZM53.134,27.867C53.325,27.237,53.956,26.849,54.604,26.963L107.399,33.294C107.83,33.336,108.211,33.591,108.416,33.972C108.583,34.35,108.583,34.781,108.416,35.159L102.933,50.873C102.922,50.977,102.864,51.069,102.776,51.124C102.688,51.179,102.579,51.191,102.481,51.156L48.612,45.503C48.192,45.473,47.813,45.241,47.595,44.881C47.431,44.483,47.431,44.036,47.595,43.638ZM42.507,57.374C42.768,56.808,43.357,56.468,43.977,56.526L97.168,61.839C97.613,61.883,98.011,62.134,98.242,62.517C98.443,62.888,98.443,63.334,98.242,63.704L92.985,79.136C92.742,79.724,92.149,80.089,91.515,80.04L38.324,74.388C37.853,74.28,37.469,73.939,37.307,73.483C37.137,73.086,37.137,72.637,37.307,72.24ZM27.641,103.951C27.217,103.891,26.842,103.641,26.624,103.272C26.457,102.894,26.457,102.464,26.624,102.085L32.276,86.032C32.514,85.354,33.208,84.948,33.915,85.071L87.219,90.724C87.639,90.754,88.018,90.986,88.237,91.346C88.4,91.744,88.4,92.191,88.237,92.589L82.584,108.36C82.374,108.974,81.758,109.353,81.114,109.264ZM27.641,103.951"/>
</g>
  <g id="Medium-L" transform="matrix(1.0,0.0,0.0,1.0,1680.0091420825559,1452.939161613806)">  <path stroke-linejoin="miter" stroke="none" fill-opacity="1" stroke-opacity="1" stroke-dasharray="none" stroke-width="1.7280001373291043" fill-rule="nonzero" fill="#000000" stroke-miterlimit="4" stroke-linecap="butt" d="M83.036,135.21C87.714,136.708,92.733,134.199,94.341,129.557L133.401,19.049C134.962,14.257,132.342,9.107,127.55,7.546C122.758,5.985,117.608,8.605,116.047,13.397L113.051,21.536C112.819,22.159,112.183,22.536,111.525,22.441L59.182,16.11C58.737,16.066,58.339,15.815,58.108,15.432C57.942,15.053,57.942,14.623,58.108,14.244L58.956,11.927C60.517,7.135,57.898,1.985,53.106,0.424C48.314,-1.137,43.164,1.482,41.603,6.274L2.261,115.539C0.7,120.331,3.319,125.481,8.111,127.042C12.903,128.602,18.054,125.983,19.614,121.191L21.536,115.539C21.764,114.938,22.368,114.567,23.006,114.634L76.592,119.948C77.017,120.008,77.391,120.257,77.61,120.626C77.777,121.004,77.777,121.435,77.61,121.813L77.045,123.509C76.231,125.854,76.411,128.429,77.543,130.638C78.674,132.847,80.658,134.499,83.036,135.21ZM53.134,27.867C53.325,27.237,53.956,26.849,54.604,26.963L107.399,33.294C107.83,33.336,108.211,33.591,108.416,33.972C108.583,34.35,108.583,34.781,108.416,35.159L102.933,50.873C102.922,50.977,102.864,51.069,102.776,51.124C102.688,51.179,102.579,51.191,102.481,51.156L48.612,45.503C48.192,45.473,47.813,45.241,47.595,44.881C47.431,44.483,47.431,44.036,47.595,43.638ZM42.507,57.374C42.768,56.808,43.357,56.468,43.977,56.526L97.168,61.839C97.613,61.883,98.011,62.134,98.242,62.517C98.443,62.888,98.443,63.334,98.242,63.704L92.985,79.136C92.742,79.724,92.149,80.089,91.515,80.04L38.324,74.388C37.853,74.28,37.469,73.939,37.307,73.483C37.137,73.086,37.137,72.637,37.307,72.24ZM27.641,103.951C27.217,103.891,26.842,103.641,26.624,103.272C26.457,102.894,26.457,102.464,26.624,102.085L32.276,86.032C32.514,85.354,33.208,84.948,33.915,85.071L87.219,90.724C87.639,90.754,88.018,90.986,88.237,91.346C88.4,91.744,88.4,92.191,88.237,92.589L82.584,108.36C82.374,108.974,81.758,109.353,81.114,109.264ZM27.641,103.951"/>
</g>
  <g id="Regular-L" transform="matrix(1.0,0.0,0.0,1.0,1383.2991420825558,1452.939161613806)">  <path stroke-linecap="butt" stroke-miterlimit="4" fill="#000000" fill-opacity="1" stroke-dasharray="none" stroke-linejoin="miter" fill-rule="nonzero" stroke="none" stroke-width="1.7280001373291043" stroke-opacity="1" d="M83.036,135.21C87.714,136.708,92.733,134.199,94.341,129.557L133.401,19.049C134.962,14.257,132.342,9.107,127.55,7.546C122.758,5.985,117.608,8.605,116.047,13.397L113.051,21.536C112.819,22.159,112.183,22.536,111.525,22.441L59.182,16.11C58.737,16.066,58.339,15.815,58.108,15.432C57.942,15.053,57.942,14.623,58.108,14.244L58.956,11.927C60.517,7.135,57.898,1.985,53.106,0.424C48.314,-1.137,43.164,1.482,41.603,6.274L2.261,115.539C0.7,120.331,3.319,125.481,8.111,127.042C12.903,128.602,18.054,125.983,19.614,121.191L21.536,115.539C21.764,114.938,22.368,114.567,23.006,114.634L76.592,119.948C77.017,120.008,77.391,120.257,77.61,120.626C77.777,121.004,77.777,121.435,77.61,121.813L77.045,123.509C76.231,125.854,76.411,128.429,77.543,130.638C78.674,132.847,80.658,134.499,83.036,135.21ZM53.134,27.867C53.325,27.237,53.956,26.849,54.604,26.963L107.399,33.294C107.83,33.336,108.211,33.591,108.416,33.972C108.583,34.35,108.583,34.781,108.416,35.159L102.933,50.873C102.922,50.977,102.864,51.069,102.776,51.124C102.688,51.179,102.579,51.191,102.481,51.156L48.612,45.503C48.192,45.473,47.813,45.241,47.595,44.881C47.431,44.483,47.431,44.036,47.595,43.638ZM42.507,57.374C42.768,56.808,43.357,56.468,43.977,56.526L97.168,61.839C97.613,61.883,98.011,62.134,98.242,62.517C98.443,62.888,98.443,63.334,98.242,63.704L92.985,79.136C92.742,79.724,92.149,80.089,91.515,80.04L38.324,74.388C37.853,74.28,37.469,73.939,37.307,73.483C37.137,73.086,37.137,72.637,37.307,72.24ZM27.641,103.951C27.217,103.891,26.842,103.641,26.624,103.272C26.457,102.894,26.457,102.464,26.624,102.085L32.276,86.032C32.514,85.354,33.208,84.948,33.915,85.071L87.219,90.724C87.639,90.754,88.018,90.986,88.237,91.346C88.4,91.744,88.4,92.191,88.237,92.589L82.584,108.36C82.374,108.974,81.758,109.353,81.114,109.264ZM27.641,103.951"/>
</g>
  <g id="Light-L" transform="matrix(1.0,0.0,0.0,1.0,1086.589142082556,1452.939161613806)">  <path fill="#000000" fill-opacity="1" stroke-width="1.7280001373291043" fill-rule="nonzero" stroke-dasharray="none" stroke-miterlimit="4" stroke-linecap="butt" stroke="none" stroke-opacity="1" stroke-linejoin="miter" d="M83.036,135.21C87.714,136.708,92.733,134.199,94.341,129.557L133.401,19.049C134.962,14.257,132.342,9.107,127.55,7.546C122.758,5.985,117.608,8.605,116.047,13.397L113.051,21.536C112.819,22.159,112.183,22.536,111.525,22.441L59.182,16.11C58.737,16.066,58.339,15.815,58.108,15.432C57.942,15.053,57.942,14.623,58.108,14.244L58.956,11.927C60.517,7.135,57.898,1.985,53.106,0.424C48.314,-1.137,43.164,1.482,41.603,6.274L2.261,115.539C0.7,120.331,3.319,125.481,8.111,127.042C12.903,128.602,18.054,125.983,19.614,121.191L21.536,115.539C21.764,114.938,22.368,114.567,23.006,114.634L76.592,119.948C77.017,120.008,77.391,120.257,77.61,120.626C77.777,121.004,77.777,121.435,77.61,121.813L77.045,123.509C76.231,125.854,76.411,128.429,77.543,130.638C78.674,132.847,80.658,134.499,83.036,135.21ZM53.134,27.867C53.325,27.237,53.956,26.849,54.604,26.963L107.399,33.294C107.83,33.336,108.211,33.591,108.416,33.972C108.583,34.35,108.583,34.781,108.416,35.159L102.933,50.873C102.922,50.977,102.864,51.069,102.776,51.124C102.688,51.179,102.579,51.191,102.481,51.156L48.612,45.503C48.192,45.473,47.813,45.241,47.595,44.881C47.431,44.483,47.431,44.036,47.595,43.638ZM42.507,57.374C42.768,56.808,43.357,56.468,43.977,56.526L97.168,61.839C97.613,61.883,98.011,62.134,98.242,62.517C98.443,62.888,98.443,63.334,98.242,63.704L92.985,79.136C92.742,79.724,92.149,80.089,91.515,80.04L38.324,74.388C37.853,74.28,37.469,73.939,37.307,73.483C37.137,73.086,37.137,72.637,37.307,72.24ZM27.641,103.951C27.217,103.891,26.842,103.641,26.624,103.272C26.457,102.894,26.457,102.464,26.624,102.085L32.276,86.032C32.514,85.354,33.208,84.948,33.915,85.071L87.219,90.724C87.639,90.754,88.018,90.986,88.237,91.346C88.4,91.744,88.4,92.191,88.237,92.589L82.584,108.36C82.374,108.974,81.758,109.353,81.114,109.264ZM27.641,103.951"/>
</g>
  <g id="Thin-L" transform="matrix(1.0,0.0,0.0,1.0,789.879142082556,1452.939161613806)">  <path fill="#000000" stroke-linecap="butt" fill-rule="nonzero" stroke-dasharray="none" stroke-width="1.7280001373291043" stroke-linejoin="miter" stroke-miterlimit="4" stroke="none" fill-opacity="1" stroke-opacity="1" d="M83.036,135.21C87.714,136.708,92.733,134.199,94.341,129.557L133.401,19.049C134.962,14.257,132.342,9.107,127.55,7.546C122.758,5.985,117.608,8.605,116.047,13.397L113.051,21.536C112.819,22.159,112.183,22.536,111.525,22.441L59.182,16.11C58.737,16.066,58.339,15.815,58.108,15.432C57.942,15.053,57.942,14.623,58.108,14.244L58.956,11.927C60.517,7.135,57.898,1.985,53.106,0.424C48.314,-1.137,43.164,1.482,41.603,6.274L2.261,115.539C0.7,120.331,3.319,125.481,8.111,127.042C12.903,128.602,18.054,125.983,19.614,121.191L21.536,115.539C21.764,114.938,22.368,114.567,23.006,114.634L76.592,119.948C77.017,120.008,77.391,120.257,77.61,120.626C77.777,121.004,77.777,121.435,77.61,121.813L77.045,123.509C76.231,125.854,76.411,128.429,77.543,130.638C78.674,132.847,80.658,134.499,83.036,135.21ZM53.134,27.867C53.325,27.237,53.956,26.849,54.604,26.963L107.399,33.294C107.83,33.336,108.211,33.591,108.416,33.972C108.583,34.35,108.583,34.781,108.416,35.159L102.933,50.873C102.922,50.977,102.864,51.069,102.776,51.124C102.688,51.179,102.579,51.191,102.481,51.156L48.612,45.503C48.192,45.473,47.813,45.241,47.595,44.881C47.431,44.483,47.431,44.036,47.595,43.638ZM42.507,57.374C42.768,56.808,43.357,56.468,43.977,56.526L97.168,61.839C97.613,61.883,98.011,62.134,98.242,62.517C98.443,62.888,98.443,63.334,98.242,63.704L92.985,79.136C92.742,79.724,92.149,80.089,91.515,80.04L38.324,74.388C37.853,74.28,37.469,73.939,37.307,73.483C37.137,73.086,37.137,72.637,37.307,72.24ZM27.641,103.951C27.217,103.891,26.842,103.641,26.624,103.272C26.457,102.894,26.457,102.464,26.624,102.085L32.276,86.032C32.514,85.354,33.208,84.948,33.915,85.071L87.219,90.724C87.639,90.754,88.018,90.986,88.237,91.346C88.4,91.744,88.4,92.191,88.237,92.589L82.584,108.36C82.374,108.974,81.758,109.353,81.114,109.264ZM27.641,103.951"/>
</g>
  <g id="Ultralight-L" transform="matrix(1.0,0.0,0.0,1.0,493.16914208255594,1452.939161613806)">  <path stroke-linecap="butt" stroke-opacity="1" fill-rule="nonzero" fill="#000000" fill-opacity="1" stroke-width="1.7280001373291043" stroke-linejoin="miter" stroke="none" stroke-miterlimit="4" stroke-dasharray="none" d="M83.036,135.21C87.714,136.708,92.733,134.199,94.341,129.557L133.401,19.049C134.962,14.257,132.342,9.107,127.55,7.546C122.758,5.985,117.608,8.605,116.047,13.397L113.051,21.536C112.819,22.159,112.183,22.536,111.525,22.441L59.182,16.11C58.737,16.066,58.339,15.815,58.108,15.432C57.942,15.053,57.942,14.623,58.108,14.244L58.956,11.927C60.517,7.135,57.898,1.985,53.106,0.424C48.314,-1.137,43.164,1.482,41.603,6.274L2.261,115.539C0.7,120.331,3.319,125.481,8.111,127.042C12.903,128.602,18.054,125.983,19.614,121.191L21.536,115.539C21.764,114.938,22.368,114.567,23.006,114.634L76.592,119.948C77.017,120.008,77.391,120.257,77.61,120.626C77.777,121.004,77.777,121.435,77.61,121.813L77.045,123.509C76.231,125.854,76.411,128.429,77.543,130.638C78.674,132.847,80.658,134.499,83.036,135.21ZM53.134,27.867C53.325,27.237,53.956,26.849,54.604,26.963L107.399,33.294C107.83,33.336,108.211,33.591,108.416,33.972C108.583,34.35,108.583,34.781,108.416,35.159L102.933,50.873C102.922,50.977,102.864,51.069,102.776,51.124C102.688,51.179,102.579,51.191,102.481,51.156L48.612,45.503C48.192,45.473,47.813,45.241,47.595,44.881C47.431,44.483,47.431,44.036,47.595,43.638ZM42.507,57.374C42.768,56.808,43.357,56.468,43.977,56.526L97.168,61.839C97.613,61.883,98.011,62.134,98.242,62.517C98.443,62.888,98.443,63.334,98.242,63.704L92.985,79.136C92.742,79.724,92.149,80.089,91.515,80.04L38.324,74.388C37.853,74.28,37.469,73.939,37.307,73.483C37.137,73.086,37.137,72.637,37.307,72.24ZM27.641,103.951C27.217,103.891,26.842,103.641,26.624,103.272C26.457,102.894,26.457,102.464,26.624,102.085L32.276,86.032C32.514,85.354,33.208,84.948,33.915,85.071L87.219,90.724C87.639,90.754,88.018,90.986,88.237,91.346C88.4,91.744,88.4,92.191,88.237,92.589L82.584,108.36C82.374,108.974,81.758,109.353,81.114,109.264ZM27.641,103.951"/>
</g>
  <g id="Black-M" transform="matrix(1.0,0.0,0.0,1.0,2882.0979395988807,1038.1879591301306)">  <path stroke-width="1.7280001373291043" stroke-linecap="butt" fill-rule="nonzero" stroke-opacity="1" stroke-miterlimit="4" fill="#000000" stroke-dasharray="none" stroke-linejoin="miter" fill-opacity="1" stroke="none" d="M64.369,104.814C67.996,105.975,71.886,104.03,73.133,100.432L103.411,14.767C104.621,11.052,102.591,7.06,98.876,5.85C95.161,4.64,91.169,6.67,89.959,10.385L87.637,16.695C87.456,17.178,86.964,17.47,86.454,17.396L45.878,12.488C45.533,12.455,45.224,12.26,45.045,11.962C44.916,11.669,44.916,11.335,45.045,11.042L45.703,9.246C46.913,5.531,44.882,1.539,41.167,0.329C37.453,-0.881,33.46,1.149,32.25,4.864L1.753,89.565C0.543,93.28,2.573,97.272,6.288,98.482C10.003,99.692,13.995,97.661,15.205,93.947L16.695,89.565C16.871,89.099,17.339,88.811,17.834,88.864L59.374,92.983C59.703,93.029,59.993,93.223,60.163,93.508C60.292,93.802,60.292,94.136,60.163,94.429L59.724,95.743C59.094,97.561,59.234,99.557,60.111,101.27C60.987,102.982,62.526,104.262,64.369,104.814ZM41.189,21.602C41.337,21.114,41.826,20.813,42.329,20.901L83.255,25.809C83.589,25.842,83.885,26.039,84.044,26.335C84.173,26.628,84.173,26.962,84.044,27.255L79.793,39.437C79.785,39.517,79.74,39.589,79.671,39.631C79.603,39.674,79.519,39.683,79.443,39.656L37.684,35.274C37.358,35.25,37.064,35.071,36.895,34.792C36.768,34.483,36.768,34.137,36.895,33.828ZM32.951,44.476C33.154,44.037,33.61,43.774,34.091,43.818L75.324,47.937C75.669,47.971,75.978,48.166,76.156,48.463C76.312,48.75,76.312,49.096,76.156,49.383L72.081,61.346C71.893,61.801,71.433,62.084,70.942,62.047L29.709,57.665C29.343,57.582,29.046,57.317,28.92,56.964C28.789,56.656,28.789,56.308,28.92,56ZM21.427,80.582C21.098,80.535,20.808,80.342,20.638,80.056C20.509,79.763,20.509,79.429,20.638,79.136L25.02,66.692C25.205,66.166,25.742,65.851,26.291,65.947L67.612,70.329C67.937,70.352,68.231,70.532,68.4,70.811C68.527,71.119,68.527,71.466,68.4,71.775L64.019,84C63.856,84.476,63.378,84.77,62.879,84.701ZM21.427,80.582"/>
</g>
  <g id="Heavy-M" transform="matrix(1.0,0.0,0.0,1.0,2585.3879395988806,1038.1879591301306)">  <path stroke="none" fill="#000000" stroke-width="1.7280001373291043" stroke-dasharray="none" fill-rule="nonzero" stroke-linecap="butt" stroke-miterlimit="4" fill-opacity="1" stroke-opacity="1" stroke-linejoin="miter" d="M64.369,104.814C67.996,105.975,71.886,104.03,73.133,100.432L103.411,14.767C104.621,11.052,102.591,7.06,98.876,5.85C95.161,4.64,91.169,6.67,89.959,10.385L87.637,16.695C87.456,17.178,86.964,17.47,86.454,17.396L45.878,12.488C45.533,12.455,45.224,12.26,45.045,11.962C44.916,11.669,44.916,11.335,45.045,11.042L45.703,9.246C46.913,5.531,44.882,1.539,41.167,0.329C37.453,-0.881,33.46,1.149,32.25,4.864L1.753,89.565C0.543,93.28,2.573,97.272,6.288,98.482C10.003,99.692,13.995,97.661,15.205,93.947L16.695,89.565C16.871,89.099,17.339,88.811,17.834,88.864L59.374,92.983C59.703,93.029,59.993,93.223,60.163,93.508C60.292,93.802,60.292,94.136,60.163,94.429L59.724,95.743C59.094,97.561,59.234,99.557,60.111,101.27C60.987,102.982,62.526,104.262,64.369,104.814ZM41.189,21.602C41.337,21.114,41.826,20.813,42.329,20.901L83.255,25.809C83.589,25.842,83.885,26.039,84.044,26.335C84.173,26.628,84.173,26.962,84.044,27.255L79.793,39.437C79.785,39.517,79.74,39.589,79.671,39.631C79.603,39.674,79.519,39.683,79.443,39.656L37.684,35.274C37.358,35.25,37.064,35.071,36.895,34.792C36.768,34.483,36.768,34.137,36.895,33.828ZM32.951,44.476C33.154,44.037,33.61,43.774,34.091,43.818L75.324,47.937C75.669,47.971,75.978,48.166,76.156,48.463C76.312,48.75,76.312,49.096,76.156,49.383L72.081,61.346C71.893,61.801,71.433,62.084,70.942,62.047L29.709,57.665C29.343,57.582,29.046,57.317,28.92,56.964C28.789,56.656,28.789,56.308,28.92,56ZM21.427,80.582C21.098,80.535,20.808,80.342,20.638,80.056C20.509,79.763,20.509,79.429,20.638,79.136L25.02,66.692C25.205,66.166,25.742,65.851,26.291,65.947L67.612,70.329C67.937,70.352,68.231,70.532,68.4,70.811C68.527,71.119,68.527,71.466,68.4,71.775L64.019,84C63.856,84.476,63.378,84.77,62.879,84.701ZM21.427,80.582"/>
</g>
  <g id="Bold-M" transform="matrix(1.0,0.0,0.0,1.0,2288.6779395988806,1038.1879591301306)">  <path stroke-opacity="1" fill-rule="nonzero" stroke-dasharray="none" stroke-linecap="butt" stroke-width="1.7280001373291043" stroke-miterlimit="4" stroke-linejoin="miter" fill-opacity="1" fill="#000000" stroke="none" d="M64.369,104.814C67.996,105.975,71.886,104.03,73.133,100.432L103.411,14.767C104.621,11.052,102.591,7.06,98.876,5.85C95.161,4.64,91.169,6.67,89.959,10.385L87.637,16.695C87.456,17.178,86.964,17.47,86.454,17.396L45.878,12.488C45.533,12.455,45.224,12.26,45.045,11.962C44.916,11.669,44.916,11.335,45.045,11.042L45.703,9.246C46.913,5.531,44.882,1.539,41.167,0.329C37.453,-0.881,33.46,1.149,32.25,4.864L1.753,89.565C0.543,93.28,2.573,97.272,6.288,98.482C10.003,99.692,13.995,97.661,15.205,93.947L16.695,89.565C16.871,89.099,17.339,88.811,17.834,88.864L59.374,92.983C59.703,93.029,59.993,93.223,60.163,93.508C60.292,93.802,60.292,94.136,60.163,94.429L59.724,95.743C59.094,97.561,59.234,99.557,60.111,101.27C60.987,102.982,62.526,104.262,64.369,104.814ZM41.189,21.602C41.337,21.114,41.826,20.813,42.329,20.901L83.255,25.809C83.589,25.842,83.885,26.039,84.044,26.335C84.173,26.628,84.173,26.962,84.044,27.255L79.793,39.437C79.785,39.517,79.74,39.589,79.671,39.631C79.603,39.674,79.519,39.683,79.443,39.656L37.684,35.274C37.358,35.25,37.064,35.071,36.895,34.792C36.768,34.483,36.768,34.137,36.895,33.828ZM32.951,44.476C33.154,44.037,33.61,43.774,34.091,43.818L75.324,47.937C75.669,47.971,75.978,48.166,76.156,48.463C76.312,48.75,76.312,49.096,76.156,49.383L72.081,61.346C71.893,61.801,71.433,62.084,70.942,62.047L29.709,57.665C29.343,57.582,29.046,57.317,28.92,56.964C28.789,56.656,28.789,56.308,28.92,56ZM21.427,80.582C21.098,80.535,20.808,80.342,20.638,80.056C20.509,79.763,20.509,79.429,20.638,79.136L25.02,66.692C25.205,66.166,25.742,65.851,26.291,65.947L67.612,70.329C67.937,70.352,68.231,70.532,68.4,70.811C68.527,71.119,68.527,71.466,68.4,71.775L64.019,84C63.856,84.476,63.378,84.77,62.879,84.701ZM21.427,80.582"/>
</g>
  <g id="Semibold-M" transform="matrix(1.0,0.0,0.0,1.0,1991.9679395988805,1038.1879591301306)">  <path stroke-linecap="butt" stroke-opacity="1" stroke-dasharray="none" fill-rule="nonzero" fill-opacity="1" stroke-miterlimit="4" fill="#000000" stroke-width="1.7280001373291043" stroke-linejoin="miter" stroke="none" d="M64.369,104.814C67.996,105.975,71.886,104.03,73.133,100.432L103.411,14.767C104.621,11.052,102.591,7.06,98.876,5.85C95.161,4.64,91.169,6.67,89.959,10.385L87.637,16.695C87.456,17.178,86.964,17.47,86.454,17.396L45.878,12.488C45.533,12.455,45.224,12.26,45.045,11.962C44.916,11.669,44.916,11.335,45.045,11.042L45.703,9.246C46.913,5.531,44.882,1.539,41.167,0.329C37.453,-0.881,33.46,1.149,32.25,4.864L1.753,89.565C0.543,93.28,2.573,97.272,6.288,98.482C10.003,99.692,13.995,97.661,15.205,93.947L16.695,89.565C16.871,89.099,17.339,88.811,17.834,88.864L59.374,92.983C59.703,93.029,59.993,93.223,60.163,93.508C60.292,93.802,60.292,94.136,60.163,94.429L59.724,95.743C59.094,97.561,59.234,99.557,60.111,101.27C60.987,102.982,62.526,104.262,64.369,104.814ZM41.189,21.602C41.337,21.114,41.826,20.813,42.329,20.901L83.255,25.809C83.589,25.842,83.885,26.039,84.044,26.335C84.173,26.628,84.173,26.962,84.044,27.255L79.793,39.437C79.785,39.517,79.74,39.589,79.671,39.631C79.603,39.674,79.519,39.683,79.443,39.656L37.684,35.274C37.358,35.25,37.064,35.071,36.895,34.792C36.768,34.483,36.768,34.137,36.895,33.828ZM32.951,44.476C33.154,44.037,33.61,43.774,34.091,43.818L75.324,47.937C75.669,47.971,75.978,48.166,76.156,48.463C76.312,48.75,76.312,49.096,76.156,49.383L72.081,61.346C71.893,61.801,71.433,62.084,70.942,62.047L29.709,57.665C29.343,57.582,29.046,57.317,28.92,56.964C28.789,56.656,28.789,56.308,28.92,56ZM21.427,80.582C21.098,80.535,20.808,80.342,20.638,80.056C20.509,79.763,20.509,79.429,20.638,79.136L25.02,66.692C25.205,66.166,25.742,65.851,26.291,65.947L67.612,70.329C67.937,70.352,68.231,70.532,68.4,70.811C68.527,71.119,68.527,71.466,68.4,71.775L64.019,84C63.856,84.476,63.378,84.77,62.879,84.701ZM21.427,80.582"/>
</g>
  <g id="Medium-M" transform="matrix(1.0,0.0,0.0,1.0,1695.2579395988805,1038.1879591301306)">  <path stroke-linejoin="miter" stroke="none" fill-opacity="1" stroke-opacity="1" stroke-dasharray="none" stroke-width="1.7280001373291043" fill-rule="nonzero" fill="#000000" stroke-miterlimit="4" stroke-linecap="butt" d="M64.369,104.814C67.996,105.975,71.886,104.03,73.133,100.432L103.411,14.767C104.621,11.052,102.591,7.06,98.876,5.85C95.161,4.64,91.169,6.67,89.959,10.385L87.637,16.695C87.456,17.178,86.964,17.47,86.454,17.396L45.878,12.488C45.533,12.455,45.224,12.26,45.045,11.962C44.916,11.669,44.916,11.335,45.045,11.042L45.703,9.246C46.913,5.531,44.882,1.539,41.167,0.329C37.453,-0.881,33.46,1.149,32.25,4.864L1.753,89.565C0.543,93.28,2.573,97.272,6.288,98.482C10.003,99.692,13.995,97.661,15.205,93.947L16.695,89.565C16.871,89.099,17.339,88.811,17.834,88.864L59.374,92.983C59.703,93.029,59.993,93.223,60.163,93.508C60.292,93.802,60.292,94.136,60.163,94.429L59.724,95.743C59.094,97.561,59.234,99.557,60.111,101.27C60.987,102.982,62.526,104.262,64.369,104.814ZM41.189,21.602C41.337,21.114,41.826,20.813,42.329,20.901L83.255,25.809C83.589,25.842,83.885,26.039,84.044,26.335C84.173,26.628,84.173,26.962,84.044,27.255L79.793,39.437C79.785,39.517,79.74,39.589,79.671,39.631C79.603,39.674,79.519,39.683,79.443,39.656L37.684,35.274C37.358,35.25,37.064,35.071,36.895,34.792C36.768,34.483,36.768,34.137,36.895,33.828ZM32.951,44.476C33.154,44.037,33.61,43.774,34.091,43.818L75.324,47.937C75.669,47.971,75.978,48.166,76.156,48.463C76.312,48.75,76.312,49.096,76.156,49.383L72.081,61.346C71.893,61.801,71.433,62.084,70.942,62.047L29.709,57.665C29.343,57.582,29.046,57.317,28.92,56.964C28.789,56.656,28.789,56.308,28.92,56ZM21.427,80.582C21.098,80.535,20.808,80.342,20.638,80.056C20.509,79.763,20.509,79.429,20.638,79.136L25.02,66.692C25.205,66.166,25.742,65.851,26.291,65.947L67.612,70.329C67.937,70.352,68.231,70.532,68.4,70.811C68.527,71.119,68.527,71.466,68.4,71.775L64.019,84C63.856,84.476,63.378,84.77,62.879,84.701ZM21.427,80.582"/>
</g>
  <g id="Regular-M" transform="matrix(1.0,0.0,0.0,1.0,1398.5479395988805,1038.1879591301306)">  <path stroke-linecap="butt" stroke-miterlimit="4" fill="#000000" fill-opacity="1" stroke-dasharray="none" stroke-linejoin="miter" fill-rule="nonzero" stroke="none" stroke-width="1.7280001373291043" stroke-opacity="1" d="M64.369,104.814C67.996,105.975,71.886,104.03,73.133,100.432L103.411,14.767C104.621,11.052,102.591,7.06,98.876,5.85C95.161,4.64,91.169,6.67,89.959,10.385L87.637,16.695C87.456,17.178,86.964,17.47,86.454,17.396L45.878,12.488C45.533,12.455,45.224,12.26,45.045,11.962C44.916,11.669,44.916,11.335,45.045,11.042L45.703,9.246C46.913,5.531,44.882,1.539,41.167,0.329C37.453,-0.881,33.46,1.149,32.25,4.864L1.753,89.565C0.543,93.28,2.573,97.272,6.288,98.482C10.003,99.692,13.995,97.661,15.205,93.947L16.695,89.565C16.871,89.099,17.339,88.811,17.834,88.864L59.374,92.983C59.703,93.029,59.993,93.223,60.163,93.508C60.292,93.802,60.292,94.136,60.163,94.429L59.724,95.743C59.094,97.561,59.234,99.557,60.111,101.27C60.987,102.982,62.526,104.262,64.369,104.814ZM41.189,21.602C41.337,21.114,41.826,20.813,42.329,20.901L83.255,25.809C83.589,25.842,83.885,26.039,84.044,26.335C84.173,26.628,84.173,26.962,84.044,27.255L79.793,39.437C79.785,39.517,79.74,39.589,79.671,39.631C79.603,39.674,79.519,39.683,79.443,39.656L37.684,35.274C37.358,35.25,37.064,35.071,36.895,34.792C36.768,34.483,36.768,34.137,36.895,33.828ZM32.951,44.476C33.154,44.037,33.61,43.774,34.091,43.818L75.324,47.937C75.669,47.971,75.978,48.166,76.156,48.463C76.312,48.75,76.312,49.096,76.156,49.383L72.081,61.346C71.893,61.801,71.433,62.084,70.942,62.047L29.709,57.665C29.343,57.582,29.046,57.317,28.92,56.964C28.789,56.656,28.789,56.308,28.92,56ZM21.427,80.582C21.098,80.535,20.808,80.342,20.638,80.056C20.509,79.763,20.509,79.429,20.638,79.136L25.02,66.692C25.205,66.166,25.742,65.851,26.291,65.947L67.612,70.329C67.937,70.352,68.231,70.532,68.4,70.811C68.527,71.119,68.527,71.466,68.4,71.775L64.019,84C63.856,84.476,63.378,84.77,62.879,84.701ZM21.427,80.582"/>
</g>
  <g id="Light-M" transform="matrix(1.0,0.0,0.0,1.0,1101.8379395988807,1038.1879591301306)">  <path fill="#000000" fill-opacity="1" stroke-width="1.7280001373291043" fill-rule="nonzero" stroke-dasharray="none" stroke-miterlimit="4" stroke-linecap="butt" stroke="none" stroke-opacity="1" stroke-linejoin="miter" d="M64.369,104.814C67.996,105.975,71.886,104.03,73.133,100.432L103.411,14.767C104.621,11.052,102.591,7.06,98.876,5.85C95.161,4.64,91.169,6.67,89.959,10.385L87.637,16.695C87.456,17.178,86.964,17.47,86.454,17.396L45.878,12.488C45.533,12.455,45.224,12.26,45.045,11.962C44.916,11.669,44.916,11.335,45.045,11.042L45.703,9.246C46.913,5.531,44.882,1.539,41.167,0.329C37.453,-0.881,33.46,1.149,32.25,4.864L1.753,89.565C0.543,93.28,2.573,97.272,6.288,98.482C10.003,99.692,13.995,97.661,15.205,93.947L16.695,89.565C16.871,89.099,17.339,88.811,17.834,88.864L59.374,92.983C59.703,93.029,59.993,93.223,60.163,93.508C60.292,93.802,60.292,94.136,60.163,94.429L59.724,95.743C59.094,97.561,59.234,99.557,60.111,101.27C60.987,102.982,62.526,104.262,64.369,104.814ZM41.189,21.602C41.337,21.114,41.826,20.813,42.329,20.901L83.255,25.809C83.589,25.842,83.885,26.039,84.044,26.335C84.173,26.628,84.173,26.962,84.044,27.255L79.793,39.437C79.785,39.517,79.74,39.589,79.671,39.631C79.603,39.674,79.519,39.683,79.443,39.656L37.684,35.274C37.358,35.25,37.064,35.071,36.895,34.792C36.768,34.483,36.768,34.137,36.895,33.828ZM32.951,44.476C33.154,44.037,33.61,43.774,34.091,43.818L75.324,47.937C75.669,47.971,75.978,48.166,76.156,48.463C76.312,48.75,76.312,49.096,76.156,49.383L72.081,61.346C71.893,61.801,71.433,62.084,70.942,62.047L29.709,57.665C29.343,57.582,29.046,57.317,28.92,56.964C28.789,56.656,28.789,56.308,28.92,56ZM21.427,80.582C21.098,80.535,20.808,80.342,20.638,80.056C20.509,79.763,20.509,79.429,20.638,79.136L25.02,66.692C25.205,66.166,25.742,65.851,26.291,65.947L67.612,70.329C67.937,70.352,68.231,70.532,68.4,70.811C68.527,71.119,68.527,71.466,68.4,71.775L64.019,84C63.856,84.476,63.378,84.77,62.879,84.701ZM21.427,80.582"/>
</g>
  <g id="Thin-M" transform="matrix(1.0,0.0,0.0,1.0,805.1279395988806,1038.1879591301306)">  <path fill="#000000" stroke-linecap="butt" fill-rule="nonzero" stroke-dasharray="none" stroke-width="1.7280001373291043" stroke-linejoin="miter" stroke-miterlimit="4" stroke="none" fill-opacity="1" stroke-opacity="1" d="M64.369,104.814C67.996,105.975,71.886,104.03,73.133,100.432L103.411,14.767C104.621,11.052,102.591,7.06,98.876,5.85C95.161,4.64,91.169,6.67,89.959,10.385L87.637,16.695C87.456,17.178,86.964,17.47,86.454,17.396L45.878,12.488C45.533,12.455,45.224,12.26,45.045,11.962C44.916,11.669,44.916,11.335,45.045,11.042L45.703,9.246C46.913,5.531,44.882,1.539,41.167,0.329C37.453,-0.881,33.46,1.149,32.25,4.864L1.753,89.565C0.543,93.28,2.573,97.272,6.288,98.482C10.003,99.692,13.995,97.661,15.205,93.947L16.695,89.565C16.871,89.099,17.339,88.811,17.834,88.864L59.374,92.983C59.703,93.029,59.993,93.223,60.163,93.508C60.292,93.802,60.292,94.136,60.163,94.429L59.724,95.743C59.094,97.561,59.234,99.557,60.111,101.27C60.987,102.982,62.526,104.262,64.369,104.814ZM41.189,21.602C41.337,21.114,41.826,20.813,42.329,20.901L83.255,25.809C83.589,25.842,83.885,26.039,84.044,26.335C84.173,26.628,84.173,26.962,84.044,27.255L79.793,39.437C79.785,39.517,79.74,39.589,79.671,39.631C79.603,39.674,79.519,39.683,79.443,39.656L37.684,35.274C37.358,35.25,37.064,35.071,36.895,34.792C36.768,34.483,36.768,34.137,36.895,33.828ZM32.951,44.476C33.154,44.037,33.61,43.774,34.091,43.818L75.324,47.937C75.669,47.971,75.978,48.166,76.156,48.463C76.312,48.75,76.312,49.096,76.156,49.383L72.081,61.346C71.893,61.801,71.433,62.084,70.942,62.047L29.709,57.665C29.343,57.582,29.046,57.317,28.92,56.964C28.789,56.656,28.789,56.308,28.92,56ZM21.427,80.582C21.098,80.535,20.808,80.342,20.638,80.056C20.509,79.763,20.509,79.429,20.638,79.136L25.02,66.692C25.205,66.166,25.742,65.851,26.291,65.947L67.612,70.329C67.937,70.352,68.231,70.532,68.4,70.811C68.527,71.119,68.527,71.466,68.4,71.775L64.019,84C63.856,84.476,63.378,84.77,62.879,84.701ZM21.427,80.582"/>
</g>
  <g id="Ultralight-M" transform="matrix(1.0,0.0,0.0,1.0,508.4179395988806,1038.1879591301306)">  <path stroke-linecap="butt" stroke-opacity="1" fill-rule="nonzero" fill="#000000" fill-opacity="1" stroke-width="1.7280001373291043" stroke-linejoin="miter" stroke="none" stroke-miterlimit="4" stroke-dasharray="none" d="M64.369,104.814C67.996,105.975,71.886,104.03,73.133,100.432L103.411,14.767C104.621,11.052,102.591,7.06,98.876,5.85C95.161,4.64,91.169,6.67,89.959,10.385L87.637,16.695C87.456,17.178,86.964,17.47,86.454,17.396L45.878,12.488C45.533,12.455,45.224,12.26,45.045,11.962C44.916,11.669,44.916,11.335,45.045,11.042L45.703,9.246C46.913,5.531,44.882,1.539,41.167,0.329C37.453,-0.881,33.46,1.149,32.25,4.864L1.753,89.565C0.543,93.28,2.573,97.272,6.288,98.482C10.003,99.692,13.995,97.661,15.205,93.947L16.695,89.565C16.871,89.099,17.339,88.811,17.834,88.864L59.374,92.983C59.703,93.029,59.993,93.223,60.163,93.508C60.292,93.802,60.292,94.136,60.163,94.429L59.724,95.743C59.094,97.561,59.234,99.557,60.111,101.27C60.987,102.982,62.526,104.262,64.369,104.814ZM41.189,21.602C41.337,21.114,41.826,20.813,42.329,20.901L83.255,25.809C83.589,25.842,83.885,26.039,84.044,26.335C84.173,26.628,84.173,26.962,84.044,27.255L79.793,39.437C79.785,39.517,79.74,39.589,79.671,39.631C79.603,39.674,79.519,39.683,79.443,39.656L37.684,35.274C37.358,35.25,37.064,35.071,36.895,34.792C36.768,34.483,36.768,34.137,36.895,33.828ZM32.951,44.476C33.154,44.037,33.61,43.774,34.091,43.818L75.324,47.937C75.669,47.971,75.978,48.166,76.156,48.463C76.312,48.75,76.312,49.096,76.156,49.383L72.081,61.346C71.893,61.801,71.433,62.084,70.942,62.047L29.709,57.665C29.343,57.582,29.046,57.317,28.92,56.964C28.789,56.656,28.789,56.308,28.92,56ZM21.427,80.582C21.098,80.535,20.808,80.342,20.638,80.056C20.509,79.763,20.509,79.429,20.638,79.136L25.02,66.692C25.205,66.166,25.742,65.851,26.291,65.947L67.612,70.329C67.937,70.352,68.231,70.532,68.4,70.811C68.527,71.119,68.527,71.466,68.4,71.775L64.019,84C63.856,84.476,63.378,84.77,62.879,84.701ZM21.427,80.582"/>
</g>
  <g id="Black-S" transform="matrix(1.0,0.0,0.0,1.0,2893.5082467059233,619.5982662371734)">  <path stroke-width="1.7280001373291043" stroke-linecap="butt" fill-rule="nonzero" stroke-opacity="1" stroke-miterlimit="4" fill="#000000" stroke-dasharray="none" stroke-linejoin="miter" fill-opacity="1" stroke="none" d="M50.401,82.069C53.241,82.979,56.287,81.455,57.263,78.638L80.971,11.562C81.919,8.654,80.329,5.528,77.42,4.58C74.511,3.633,71.385,5.223,70.438,8.131L68.62,13.072C68.478,13.45,68.093,13.679,67.693,13.621L35.922,9.778C35.652,9.752,35.41,9.599,35.27,9.367C35.169,9.137,35.169,8.876,35.27,8.646L35.785,7.239C36.733,4.331,35.143,1.205,32.234,0.257C29.325,-0.69,26.199,0.9,25.252,3.808L1.372,70.129C0.425,73.038,2.015,76.164,4.923,77.111C7.832,78.059,10.958,76.469,11.905,73.56L13.072,70.129C13.21,69.765,13.577,69.539,13.964,69.58L46.49,72.805C46.747,72.842,46.975,72.993,47.107,73.217C47.209,73.447,47.209,73.708,47.107,73.938L46.764,74.967C46.271,76.39,46.38,77.953,47.067,79.294C47.753,80.635,48.958,81.638,50.401,82.069ZM32.251,16.915C32.367,16.532,32.75,16.297,33.143,16.366L65.189,20.208C65.45,20.234,65.682,20.389,65.806,20.62C65.907,20.85,65.907,21.111,65.806,21.341L62.478,30.879C62.471,30.942,62.436,30.998,62.383,31.031C62.329,31.065,62.263,31.072,62.204,31.05L29.506,27.619C29.252,27.601,29.021,27.46,28.889,27.242C28.79,27,28.79,26.729,28.889,26.487ZM25.801,34.824C25.959,34.481,26.317,34.275,26.693,34.31L58.979,37.535C59.249,37.561,59.491,37.714,59.63,37.947C59.752,38.171,59.752,38.442,59.63,38.667L56.44,48.034C56.292,48.39,55.932,48.612,55.548,48.583L23.262,45.152C22.976,45.086,22.743,44.879,22.644,44.603C22.541,44.362,22.541,44.089,22.644,43.848ZM16.777,63.096C16.52,63.059,16.293,62.908,16.16,62.684C16.059,62.455,16.059,62.193,16.16,61.963L19.591,52.22C19.735,51.808,20.156,51.561,20.586,51.636L52.94,55.067C53.195,55.086,53.425,55.226,53.558,55.445C53.657,55.686,53.657,55.958,53.558,56.199L50.127,65.772C49.999,66.145,49.625,66.375,49.235,66.321ZM16.777,63.096"/>
</g>
  <g id="Heavy-S" transform="matrix(1.0,0.0,0.0,1.0,2596.7982467059232,619.5982662371734)">  <path stroke="none" fill="#000000" stroke-width="1.7280001373291043" stroke-dasharray="none" fill-rule="nonzero" stroke-linecap="butt" stroke-miterlimit="4" fill-opacity="1" stroke-opacity="1" stroke-linejoin="miter" d="M50.401,82.069C53.241,82.979,56.287,81.455,57.263,78.638L80.971,11.562C81.919,8.654,80.329,5.528,77.42,4.58C74.511,3.633,71.385,5.223,70.438,8.131L68.62,13.072C68.478,13.45,68.093,13.679,67.693,13.621L35.922,9.778C35.652,9.752,35.41,9.599,35.27,9.367C35.169,9.137,35.169,8.876,35.27,8.646L35.785,7.239C36.733,4.331,35.143,1.205,32.234,0.257C29.325,-0.69,26.199,0.9,25.252,3.808L1.372,70.129C0.425,73.038,2.015,76.164,4.923,77.111C7.832,78.059,10.958,76.469,11.905,73.56L13.072,70.129C13.21,69.765,13.577,69.539,13.964,69.58L46.49,72.805C46.747,72.842,46.975,72.993,47.107,73.217C47.209,73.447,47.209,73.708,47.107,73.938L46.764,74.967C46.271,76.39,46.38,77.953,47.067,79.294C47.753,80.635,48.958,81.638,50.401,82.069ZM32.251,16.915C32.367,16.532,32.75,16.297,33.143,16.366L65.189,20.208C65.45,20.234,65.682,20.389,65.806,20.62C65.907,20.85,65.907,21.111,65.806,21.341L62.478,30.879C62.471,30.942,62.436,30.998,62.383,31.031C62.329,31.065,62.263,31.072,62.204,31.05L29.506,27.619C29.252,27.601,29.021,27.46,28.889,27.242C28.79,27,28.79,26.729,28.889,26.487ZM25.801,34.824C25.959,34.481,26.317,34.275,26.693,34.31L58.979,37.535C59.249,37.561,59.491,37.714,59.63,37.947C59.752,38.171,59.752,38.442,59.63,38.667L56.44,48.034C56.292,48.39,55.932,48.612,55.548,48.583L23.262,45.152C22.976,45.086,22.743,44.879,22.644,44.603C22.541,44.362,22.541,44.089,22.644,43.848ZM16.777,63.096C16.52,63.059,16.293,62.908,16.16,62.684C16.059,62.455,16.059,62.193,16.16,61.963L19.591,52.22C19.735,51.808,20.156,51.561,20.586,51.636L52.94,55.067C53.195,55.086,53.425,55.226,53.558,55.445C53.657,55.686,53.657,55.958,53.558,56.199L50.127,65.772C49.999,66.145,49.625,66.375,49.235,66.321ZM16.777,63.096"/>
</g>
  <g id="Bold-S" transform="matrix(1.0,0.0,0.0,1.0,2300.088246705923,619.5982662371734)">  <path stroke-opacity="1" fill-rule="nonzero" stroke-dasharray="none" stroke-linecap="butt" stroke-width="1.7280001373291043" stroke-miterlimit="4" stroke-linejoin="miter" fill-opacity="1" fill="#000000" stroke="none" d="M50.401,82.069C53.241,82.979,56.287,81.455,57.263,78.638L80.971,11.562C81.919,8.654,80.329,5.528,77.42,4.58C74.511,3.633,71.385,5.223,70.438,8.131L68.62,13.072C68.478,13.45,68.093,13.679,67.693,13.621L35.922,9.778C35.652,9.752,35.41,9.599,35.27,9.367C35.169,9.137,35.169,8.876,35.27,8.646L35.785,7.239C36.733,4.331,35.143,1.205,32.234,0.257C29.325,-0.69,26.199,0.9,25.252,3.808L1.372,70.129C0.425,73.038,2.015,76.164,4.923,77.111C7.832,78.059,10.958,76.469,11.905,73.56L13.072,70.129C13.21,69.765,13.577,69.539,13.964,69.58L46.49,72.805C46.747,72.842,46.975,72.993,47.107,73.217C47.209,73.447,47.209,73.708,47.107,73.938L46.764,74.967C46.271,76.39,46.38,77.953,47.067,79.294C47.753,80.635,48.958,81.638,50.401,82.069ZM32.251,16.915C32.367,16.532,32.75,16.297,33.143,16.366L65.189,20.208C65.45,20.234,65.682,20.389,65.806,20.62C65.907,20.85,65.907,21.111,65.806,21.341L62.478,30.879C62.471,30.942,62.436,30.998,62.383,31.031C62.329,31.065,62.263,31.072,62.204,31.05L29.506,27.619C29.252,27.601,29.021,27.46,28.889,27.242C28.79,27,28.79,26.729,28.889,26.487ZM25.801,34.824C25.959,34.481,26.317,34.275,26.693,34.31L58.979,37.535C59.249,37.561,59.491,37.714,59.63,37.947C59.752,38.171,59.752,38.442,59.63,38.667L56.44,48.034C56.292,48.39,55.932,48.612,55.548,48.583L23.262,45.152C22.976,45.086,22.743,44.879,22.644,44.603C22.541,44.362,22.541,44.089,22.644,43.848ZM16.777,63.096C16.52,63.059,16.293,62.908,16.16,62.684C16.059,62.455,16.059,62.193,16.16,61.963L19.591,52.22C19.735,51.808,20.156,51.561,20.586,51.636L52.94,55.067C53.195,55.086,53.425,55.226,53.558,55.445C53.657,55.686,53.657,55.958,53.558,56.199L50.127,65.772C49.999,66.145,49.625,66.375,49.235,66.321ZM16.777,63.096"/>
</g>
  <g id="Semibold-S" transform="matrix(1.0,0.0,0.0,1.0,2003.3782467059234,619.5982662371734)">  <path stroke-linecap="butt" stroke-opacity="1" stroke-dasharray="none" fill-rule="nonzero" fill-opacity="1" stroke-miterlimit="4" fill="#000000" stroke-width="1.7280001373291043" stroke-linejoin="miter" stroke="none" d="M50.401,82.069C53.241,82.979,56.287,81.455,57.263,78.638L80.971,11.562C81.919,8.654,80.329,5.528,77.42,4.58C74.511,3.633,71.385,5.223,70.438,8.131L68.62,13.072C68.478,13.45,68.093,13.679,67.693,13.621L35.922,9.778C35.652,9.752,35.41,9.599,35.27,9.367C35.169,9.137,35.169,8.876,35.27,8.646L35.785,7.239C36.733,4.331,35.143,1.205,32.234,0.257C29.325,-0.69,26.199,0.9,25.252,3.808L1.372,70.129C0.425,73.038,2.015,76.164,4.923,77.111C7.832,78.059,10.958,76.469,11.905,73.56L13.072,70.129C13.21,69.765,13.577,69.539,13.964,69.58L46.49,72.805C46.747,72.842,46.975,72.993,47.107,73.217C47.209,73.447,47.209,73.708,47.107,73.938L46.764,74.967C46.271,76.39,46.38,77.953,47.067,79.294C47.753,80.635,48.958,81.638,50.401,82.069ZM32.251,16.915C32.367,16.532,32.75,16.297,33.143,16.366L65.189,20.208C65.45,20.234,65.682,20.389,65.806,20.62C65.907,20.85,65.907,21.111,65.806,21.341L62.478,30.879C62.471,30.942,62.436,30.998,62.383,31.031C62.329,31.065,62.263,31.072,62.204,31.05L29.506,27.619C29.252,27.601,29.021,27.46,28.889,27.242C28.79,27,28.79,26.729,28.889,26.487ZM25.801,34.824C25.959,34.481,26.317,34.275,26.693,34.31L58.979,37.535C59.249,37.561,59.491,37.714,59.63,37.947C59.752,38.171,59.752,38.442,59.63,38.667L56.44,48.034C56.292,48.39,55.932,48.612,55.548,48.583L23.262,45.152C22.976,45.086,22.743,44.879,22.644,44.603C22.541,44.362,22.541,44.089,22.644,43.848ZM16.777,63.096C16.52,63.059,16.293,62.908,16.16,62.684C16.059,62.455,16.059,62.193,16.16,61.963L19.591,52.22C19.735,51.808,20.156,51.561,20.586,51.636L52.94,55.067C53.195,55.086,53.425,55.226,53.558,55.445C53.657,55.686,53.657,55.958,53.558,56.199L50.127,65.772C49.999,66.145,49.625,66.375,49.235,66.321ZM16.777,63.096"/>
</g>
  <g id="Medium-S" transform="matrix(1.0,0.0,0.0,1.0,1706.6682467059234,619.5982662371734)">  <path stroke-linejoin="miter" stroke="none" fill-opacity="1" stroke-opacity="1" stroke-dasharray="none" stroke-width="1.7280001373291043" fill-rule="nonzero" fill="#000000" stroke-miterlimit="4" stroke-linecap="butt" d="M50.401,82.069C53.241,82.979,56.287,81.455,57.263,78.638L80.971,11.562C81.919,8.654,80.329,5.528,77.42,4.58C74.511,3.633,71.385,5.223,70.438,8.131L68.62,13.072C68.478,13.45,68.093,13.679,67.693,13.621L35.922,9.778C35.652,9.752,35.41,9.599,35.27,9.367C35.169,9.137,35.169,8.876,35.27,8.646L35.785,7.239C36.733,4.331,35.143,1.205,32.234,0.257C29.325,-0.69,26.199,0.9,25.252,3.808L1.372,70.129C0.425,73.038,2.015,76.164,4.923,77.111C7.832,78.059,10.958,76.469,11.905,73.56L13.072,70.129C13.21,69.765,13.577,69.539,13.964,69.58L46.49,72.805C46.747,72.842,46.975,72.993,47.107,73.217C47.209,73.447,47.209,73.708,47.107,73.938L46.764,74.967C46.271,76.39,46.38,77.953,47.067,79.294C47.753,80.635,48.958,81.638,50.401,82.069ZM32.251,16.915C32.367,16.532,32.75,16.297,33.143,16.366L65.189,20.208C65.45,20.234,65.682,20.389,65.806,20.62C65.907,20.85,65.907,21.111,65.806,21.341L62.478,30.879C62.471,30.942,62.436,30.998,62.383,31.031C62.329,31.065,62.263,31.072,62.204,31.05L29.506,27.619C29.252,27.601,29.021,27.46,28.889,27.242C28.79,27,28.79,26.729,28.889,26.487ZM25.801,34.824C25.959,34.481,26.317,34.275,26.693,34.31L58.979,37.535C59.249,37.561,59.491,37.714,59.63,37.947C59.752,38.171,59.752,38.442,59.63,38.667L56.44,48.034C56.292,48.39,55.932,48.612,55.548,48.583L23.262,45.152C22.976,45.086,22.743,44.879,22.644,44.603C22.541,44.362,22.541,44.089,22.644,43.848ZM16.777,63.096C16.52,63.059,16.293,62.908,16.16,62.684C16.059,62.455,16.059,62.193,16.16,61.963L19.591,52.22C19.735,51.808,20.156,51.561,20.586,51.636L52.94,55.067C53.195,55.086,53.425,55.226,53.558,55.445C53.657,55.686,53.657,55.958,53.558,56.199L50.127,65.772C49.999,66.145,49.625,66.375,49.235,66.321ZM16.777,63.096"/>
</g>
  <g id="Regular-S" transform="matrix(1.0,0.0,0.0,1.0,1409.9582467059233,619.5982662371734)">  <path stroke-linecap="butt" stroke-miterlimit="4" fill="#000000" fill-opacity="1" stroke-dasharray="none" stroke-linejoin="miter" fill-rule="nonzero" stroke="none" stroke-width="1.7280001373291043" stroke-opacity="1" d="M50.401,82.069C53.241,82.979,56.287,81.455,57.263,78.638L80.971,11.562C81.919,8.654,80.329,5.528,77.42,4.58C74.511,3.633,71.385,5.223,70.438,8.131L68.62,13.072C68.478,13.45,68.093,13.679,67.693,13.621L35.922,9.778C35.652,9.752,35.41,9.599,35.27,9.367C35.169,9.137,35.169,8.876,35.27,8.646L35.785,7.239C36.733,4.331,35.143,1.205,32.234,0.257C29.325,-0.69,26.199,0.9,25.252,3.808L1.372,70.129C0.425,73.038,2.015,76.164,4.923,77.111C7.832,78.059,10.958,76.469,11.905,73.56L13.072,70.129C13.21,69.765,13.577,69.539,13.964,69.58L46.49,72.805C46.747,72.842,46.975,72.993,47.107,73.217C47.209,73.447,47.209,73.708,47.107,73.938L46.764,74.967C46.271,76.39,46.38,77.953,47.067,79.294C47.753,80.635,48.958,81.638,50.401,82.069ZM32.251,16.915C32.367,16.532,32.75,16.297,33.143,16.366L65.189,20.208C65.45,20.234,65.682,20.389,65.806,20.62C65.907,20.85,65.907,21.111,65.806,21.341L62.478,30.879C62.471,30.942,62.436,30.998,62.383,31.031C62.329,31.065,62.263,31.072,62.204,31.05L29.506,27.619C29.252,27.601,29.021,27.46,28.889,27.242C28.79,27,28.79,26.729,28.889,26.487ZM25.801,34.824C25.959,34.481,26.317,34.275,26.693,34.31L58.979,37.535C59.249,37.561,59.491,37.714,59.63,37.947C59.752,38.171,59.752,38.442,59.63,38.667L56.44,48.034C56.292,48.39,55.932,48.612,55.548,48.583L23.262,45.152C22.976,45.086,22.743,44.879,22.644,44.603C22.541,44.362,22.541,44.089,22.644,43.848ZM16.777,63.096C16.52,63.059,16.293,62.908,16.16,62.684C16.059,62.455,16.059,62.193,16.16,61.963L19.591,52.22C19.735,51.808,20.156,51.561,20.586,51.636L52.94,55.067C53.195,55.086,53.425,55.226,53.558,55.445C53.657,55.686,53.657,55.958,53.558,56.199L50.127,65.772C49.999,66.145,49.625,66.375,49.235,66.321ZM16.777,63.096"/>
</g>
  <g id="Light-S" transform="matrix(1.0,0.0,0.0,1.0,1113.2482467059235,619.5982662371734)">  <path fill="#000000" fill-opacity="1" stroke-width="1.7280001373291043" fill-rule="nonzero" stroke-dasharray="none" stroke-miterlimit="4" stroke-linecap="butt" stroke="none" stroke-opacity="1" stroke-linejoin="miter" d="M50.401,82.069C53.241,82.979,56.287,81.455,57.263,78.638L80.971,11.562C81.919,8.654,80.329,5.528,77.42,4.58C74.511,3.633,71.385,5.223,70.438,8.131L68.62,13.072C68.478,13.45,68.093,13.679,67.693,13.621L35.922,9.778C35.652,9.752,35.41,9.599,35.27,9.367C35.169,9.137,35.169,8.876,35.27,8.646L35.785,7.239C36.733,4.331,35.143,1.205,32.234,0.257C29.325,-0.69,26.199,0.9,25.252,3.808L1.372,70.129C0.425,73.038,2.015,76.164,4.923,77.111C7.832,78.059,10.958,76.469,11.905,73.56L13.072,70.129C13.21,69.765,13.577,69.539,13.964,69.58L46.49,72.805C46.747,72.842,46.975,72.993,47.107,73.217C47.209,73.447,47.209,73.708,47.107,73.938L46.764,74.967C46.271,76.39,46.38,77.953,47.067,79.294C47.753,80.635,48.958,81.638,50.401,82.069ZM32.251,16.915C32.367,16.532,32.75,16.297,33.143,16.366L65.189,20.208C65.45,20.234,65.682,20.389,65.806,20.62C65.907,20.85,65.907,21.111,65.806,21.341L62.478,30.879C62.471,30.942,62.436,30.998,62.383,31.031C62.329,31.065,62.263,31.072,62.204,31.05L29.506,27.619C29.252,27.601,29.021,27.46,28.889,27.242C28.79,27,28.79,26.729,28.889,26.487ZM25.801,34.824C25.959,34.481,26.317,34.275,26.693,34.31L58.979,37.535C59.249,37.561,59.491,37.714,59.63,37.947C59.752,38.171,59.752,38.442,59.63,38.667L56.44,48.034C56.292,48.39,55.932,48.612,55.548,48.583L23.262,45.152C22.976,45.086,22.743,44.879,22.644,44.603C22.541,44.362,22.541,44.089,22.644,43.848ZM16.777,63.096C16.52,63.059,16.293,62.908,16.16,62.684C16.059,62.455,16.059,62.193,16.16,61.963L19.591,52.22C19.735,51.808,20.156,51.561,20.586,51.636L52.94,55.067C53.195,55.086,53.425,55.226,53.558,55.445C53.657,55.686,53.657,55.958,53.558,56.199L50.127,65.772C49.999,66.145,49.625,66.375,49.235,66.321ZM16.777,63.096"/>
</g>
  <g id="Thin-S" transform="matrix(1.0,0.0,0.0,1.0,816.5382467059235,619.5982662371734)">  <path fill="#000000" stroke-linecap="butt" fill-rule="nonzero" stroke-dasharray="none" stroke-width="1.7280001373291043" stroke-linejoin="miter" stroke-miterlimit="4" stroke="none" fill-opacity="1" stroke-opacity="1" d="M50.401,82.069C53.241,82.979,56.287,81.455,57.263,78.638L80.971,11.562C81.919,8.654,80.329,5.528,77.42,4.58C74.511,3.633,71.385,5.223,70.438,8.131L68.62,13.072C68.478,13.45,68.093,13.679,67.693,13.621L35.922,9.778C35.652,9.752,35.41,9.599,35.27,9.367C35.169,9.137,35.169,8.876,35.27,8.646L35.785,7.239C36.733,4.331,35.143,1.205,32.234,0.257C29.325,-0.69,26.199,0.9,25.252,3.808L1.372,70.129C0.425,73.038,2.015,76.164,4.923,77.111C7.832,78.059,10.958,76.469,11.905,73.56L13.072,70.129C13.21,69.765,13.577,69.539,13.964,69.58L46.49,72.805C46.747,72.842,46.975,72.993,47.107,73.217C47.209,73.447,47.209,73.708,47.107,73.938L46.764,74.967C46.271,76.39,46.38,77.953,47.067,79.294C47.753,80.635,48.958,81.638,50.401,82.069ZM32.251,16.915C32.367,16.532,32.75,16.297,33.143,16.366L65.189,20.208C65.45,20.234,65.682,20.389,65.806,20.62C65.907,20.85,65.907,21.111,65.806,21.341L62.478,30.879C62.471,30.942,62.436,30.998,62.383,31.031C62.329,31.065,62.263,31.072,62.204,31.05L29.506,27.619C29.252,27.601,29.021,27.46,28.889,27.242C28.79,27,28.79,26.729,28.889,26.487ZM25.801,34.824C25.959,34.481,26.317,34.275,26.693,34.31L58.979,37.535C59.249,37.561,59.491,37.714,59.63,37.947C59.752,38.171,59.752,38.442,59.63,38.667L56.44,48.034C56.292,48.39,55.932,48.612,55.548,48.583L23.262,45.152C22.976,45.086,22.743,44.879,22.644,44.603C22.541,44.362,22.541,44.089,22.644,43.848ZM16.777,63.096C16.52,63.059,16.293,62.908,16.16,62.684C16.059,62.455,16.059,62.193,16.16,61.963L19.591,52.22C19.735,51.808,20.156,51.561,20.586,51.636L52.94,55.067C53.195,55.086,53.425,55.226,53.558,55.445C53.657,55.686,53.657,55.958,53.558,56.199L50.127,65.772C49.999,66.145,49.625,66.375,49.235,66.321ZM16.777,63.096"/>
</g>
  <g id="Ultralight-S" transform="matrix(1.0,0.0,0.0,1.0,519.8282467059234,619.5982662371734)">  <path stroke-linecap="butt" stroke-opacity="1" fill-rule="nonzero" fill="#000000" fill-opacity="1" stroke-width="1.7280001373291043" stroke-linejoin="miter" stroke="none" stroke-miterlimit="4" stroke-dasharray="none" d="M50.401,82.069C53.241,82.979,56.287,81.455,57.263,78.638L80.971,11.562C81.919,8.654,80.329,5.528,77.42,4.58C74.511,3.633,71.385,5.223,70.438,8.131L68.62,13.072C68.478,13.45,68.093,13.679,67.693,13.621L35.922,9.778C35.652,9.752,35.41,9.599,35.27,9.367C35.169,9.137,35.169,8.876,35.27,8.646L35.785,7.239C36.733,4.331,35.143,1.205,32.234,0.257C29.325,-0.69,26.199,0.9,25.252,3.808L1.372,70.129C0.425,73.038,2.015,76.164,4.923,77.111C7.832,78.059,10.958,76.469,11.905,73.56L13.072,70.129C13.21,69.765,13.577,69.539,13.964,69.58L46.49,72.805C46.747,72.842,46.975,72.993,47.107,73.217C47.209,73.447,47.209,73.708,47.107,73.938L46.764,74.967C46.271,76.39,46.38,77.953,47.067,79.294C47.753,80.635,48.958,81.638,50.401,82.069ZM32.251,16.915C32.367,16.532,32.75,16.297,33.143,16.366L65.189,20.208C65.45,20.234,65.682,20.389,65.806,20.62C65.907,20.85,65.907,21.111,65.806,21.341L62.478,30.879C62.471,30.942,62.436,30.998,62.383,31.031C62.329,31.065,62.263,31.072,62.204,31.05L29.506,27.619C29.252,27.601,29.021,27.46,28.889,27.242C28.79,27,28.79,26.729,28.889,26.487ZM25.801,34.824C25.959,34.481,26.317,34.275,26.693,34.31L58.979,37.535C59.249,37.561,59.491,37.714,59.63,37.947C59.752,38.171,59.752,38.442,59.63,38.667L56.44,48.034C56.292,48.39,55.932,48.612,55.548,48.583L23.262,45.152C22.976,45.086,22.743,44.879,22.644,44.603C22.541,44.362,22.541,44.089,22.644,43.848ZM16.777,63.096C16.52,63.059,16.293,62.908,16.16,62.684C16.059,62.455,16.059,62.193,16.16,61.963L19.591,52.22C19.735,51.808,20.156,51.561,20.586,51.636L52.94,55.067C53.195,55.086,53.425,55.226,53.558,55.445C53.657,55.686,53.657,55.958,53.558,56.199L50.127,65.772C49.999,66.145,49.625,66.375,49.235,66.321ZM16.777,63.096"/>
</g>
 </g>
</svg>
