<?xml version="1.0" encoding="UTF-8"?>
<!--Generator: CustomSymbols by @serious_bret-->
<!DOCTYPE svg
PUBLIC "-//W3C//DTD SVG 1.1//EN"
       "http://www.w3.org/Graphics/SVG/1.1/DTD/svg11.dtd">
<svg version="1.1" xmlns="http://www.w3.org/2000/svg" xmlns:xlink="http://www.w3.org/1999/xlink" width="3300" height="2200">
 <g id="Notes">
  <rect height="2200" id="artboard" style="fill:white;opacity:1" width="3300" x="0" y="0"/>
  <line id="" style="fill:none;stroke:black;opacity:1;stroke-width:0.5;" x1="263" x2="3036" y1="292" y2="292"/>
  <text id="reftext1" style="stroke:none;fill:black;font-family:-apple-system,&quot;SF Pro Display&quot;,&quot;SF Pro Text&quot;,Helvetica,sans-serif;font-weight:bold;" transform="matrix(1 0 0 1 263 322)">Weight/Scale Variations</text>
  <text id="reftext2" style="stroke:none;fill:black;font-family:-apple-system,&quot;SF Pro Display&quot;,&quot;SF Pro Text&quot;,Helvetica,sans-serif;text-anchor:middle;" transform="matrix(1 0 0 1 559.711 322)">Ultralight</text>
  <text style="stroke:none;fill:black;font-family:-apple-system,&quot;SF Pro Display&quot;,&quot;SF Pro Text&quot;,Helvetica,sans-serif;text-anchor:middle;" transform="matrix(1 0 0 1 856.422 322)">Thin</text>
  <text style="stroke:none;fill:black;font-family:-apple-system,&quot;SF Pro Display&quot;,&quot;SF Pro Text&quot;,Helvetica,sans-serif;text-anchor:middle;" transform="matrix(1 0 0 1 1153.13 322)">Light</text>
  <text style="stroke:none;fill:black;font-family:-apple-system,&quot;SF Pro Display&quot;,&quot;SF Pro Text&quot;,Helvetica,sans-serif;text-anchor:middle;" transform="matrix(1 0 0 1 1449.84 322)">Regular</text>
  <text style="stroke:none;fill:black;font-family:-apple-system,&quot;SF Pro Display&quot;,&quot;SF Pro Text&quot;,Helvetica,sans-serif;text-anchor:middle;" transform="matrix(1 0 0 1 1746.56 322)">Medium</text>
  <text style="stroke:none;fill:black;font-family:-apple-system,&quot;SF Pro Display&quot;,&quot;SF Pro Text&quot;,Helvetica,sans-serif;text-anchor:middle;" transform="matrix(1 0 0 1 2043.27 322)">Semibold</text>
  <text style="stroke:none;fill:black;font-family:-apple-system,&quot;SF Pro Display&quot;,&quot;SF Pro Text&quot;,Helvetica,sans-serif;text-anchor:middle;" transform="matrix(1 0 0 1 2339.98 322)">Bold</text>
  <text style="stroke:none;fill:black;font-family:-apple-system,&quot;SF Pro Display&quot;,&quot;SF Pro Text&quot;,Helvetica,sans-serif;text-anchor:middle;" transform="matrix(1 0 0 1 2636.69 322)">Heavy</text>
  <text style="stroke:none;fill:black;font-family:-apple-system,&quot;SF Pro Display&quot;,&quot;SF Pro Text&quot;,Helvetica,sans-serif;text-anchor:middle;" transform="matrix(1 0 0 1 2933.4 322)">Black</text>
  <line id="" style="fill:none;stroke:black;opacity:1;stroke-width:0.5;" x1="263" x2="3036" y1="1903" y2="1903"/>
  <g id="" transform="matrix(1 0 0 1 263 1933)">
   <path d="M9.24805 0.830078C13.5547 0.830078 17.1387-2.74414 17.1387-7.05078C17.1387-11.3574 13.5449-14.9316 9.23828-14.9316C4.94141-14.9316 1.36719-11.3574 1.36719-7.05078C1.36719-2.74414 4.95117 0.830078 9.24805 0.830078ZM9.24805-0.654297C5.70312-0.654297 2.87109-3.49609 2.87109-7.05078C2.87109-10.6055 5.69336-13.4473 9.23828-13.4473C12.793-13.4473 15.6348-10.6055 15.6445-7.05078C15.6543-3.49609 12.8027-0.654297 9.24805-0.654297ZM6.39648-6.31836L8.50586-6.31836L8.50586-4.19922C8.50586-3.75977 8.79883-3.45703 9.22852-3.45703C9.67773-3.45703 9.9707-3.75977 9.9707-4.19922L9.9707-6.31836L12.0996-6.31836C12.5391-6.31836 12.8418-6.61133 12.8418-7.04102C12.8418-7.48047 12.5391-7.7832 12.0996-7.7832L9.9707-7.7832L9.9707-9.89258C9.9707-10.3418 9.67773-10.6445 9.22852-10.6445C8.79883-10.6445 8.50586-10.3418 8.50586-9.89258L8.50586-7.7832L6.39648-7.7832C5.94727-7.7832 5.64453-7.48047 5.64453-7.04102C5.64453-6.61133 5.94727-6.31836 6.39648-6.31836Z"/>
  </g>
  <g id="" transform="matrix(1 0 0 1 281.506 1933)">
   <path d="M11.709 2.91016C17.1582 2.91016 21.6699-1.61133 21.6699-7.05078C21.6699-12.5 17.1484-17.0117 11.6992-17.0117C6.25977-17.0117 1.74805-12.5 1.74805-7.05078C1.74805-1.61133 6.26953 2.91016 11.709 2.91016ZM11.709 1.25C7.09961 1.25 3.41797-2.44141 3.41797-7.05078C3.41797-11.6602 7.08984-15.3516 11.6992-15.3516C16.3086-15.3516 20-11.6602 20.0098-7.05078C20.0195-2.44141 16.3184 1.25 11.709 1.25ZM7.98828-6.23047L10.8789-6.23047L10.8789-3.32031C10.8789-2.83203 11.2109-2.5 11.6895-2.5C12.1777-2.5 12.5195-2.83203 12.5195-3.32031L12.5195-6.23047L15.4297-6.23047C15.918-6.23047 16.25-6.5625 16.25-7.04102C16.25-7.5293 15.918-7.87109 15.4297-7.87109L12.5195-7.87109L12.5195-10.7617C12.5195-11.2695 12.1777-11.6016 11.6895-11.6016C11.2109-11.6016 10.8789-11.2598 10.8789-10.7617L10.8789-7.87109L7.98828-7.87109C7.48047-7.87109 7.14844-7.5293 7.14844-7.04102C7.14844-6.5625 7.49023-6.23047 7.98828-6.23047Z"/>
  </g>
  <g id="" transform="matrix(1 0 0 1 304.924 1933)">
   <path d="M14.9707 5.66406C21.9336 5.66406 27.6953-0.0976562 27.6953-7.05078C27.6953-14.0137 21.9238-19.7754 14.9609-19.7754C8.00781-19.7754 2.25586-14.0137 2.25586-7.05078C2.25586-0.0976562 8.01758 5.66406 14.9707 5.66406ZM14.9707 3.84766C8.93555 3.84766 4.08203-1.01562 4.08203-7.05078C4.08203-13.0957 8.92578-17.9492 14.9609-17.9492C21.0059-17.9492 25.8594-13.0957 25.8691-7.05078C25.8789-1.01562 21.0156 3.84766 14.9707 3.84766ZM10.0586-6.14258L14.0625-6.14258L14.0625-2.12891C14.0625-1.5918 14.4336-1.2207 14.9512-1.2207C15.4883-1.2207 15.8594-1.5918 15.8594-2.12891L15.8594-6.14258L19.8828-6.14258C20.4102-6.14258 20.791-6.51367 20.791-7.03125C20.791-7.56836 20.4199-7.94922 19.8828-7.94922L15.8594-7.94922L15.8594-11.9531C15.8594-12.5098 15.4883-12.8809 14.9512-12.8809C14.4336-12.8809 14.0625-12.5 14.0625-11.9531L14.0625-7.94922L10.0586-7.94922C9.50195-7.94922 9.13086-7.56836 9.13086-7.03125C9.13086-6.51367 9.51172-6.14258 10.0586-6.14258Z"/>
  </g>
  <text style="stroke:none;fill:black;font-family:-apple-system,&quot;SF Pro Display&quot;,&quot;SF Pro Text&quot;,Helvetica,sans-serif;font-weight:bold;" transform="matrix(1 0 0 1 263 1953)">Design Variations</text>
  <text style="stroke:none;fill:black;font-family:-apple-system,&quot;SF Pro Display&quot;,&quot;SF Pro Text&quot;,Helvetica,sans-serif;" transform="matrix(1 0 0 1 263 1971)">Symbols are supported in up to nine weights and three scales.</text>
  <text style="stroke:none;fill:black;font-family:-apple-system,&quot;SF Pro Display&quot;,&quot;SF Pro Text&quot;,Helvetica,sans-serif;" transform="matrix(1 0 0 1 263 1989)">For optimal layout with text and other symbols, vertically align</text>
  <text style="stroke:none;fill:black;font-family:-apple-system,&quot;SF Pro Display&quot;,&quot;SF Pro Text&quot;,Helvetica,sans-serif;" transform="matrix(1 0 0 1 263 2007)">symbols with the adjacent text.</text>
  <line id="" style="fill:none;stroke:#00AEEF;stroke-width:0.5;opacity:1.0;" x1="776" x2="776" y1="1919" y2="1933"/>
  <g id="" transform="matrix(1 0 0 1 776 1933)">
   <path d="M3.31055 0.126953C3.82812 0.126953 4.08203-0.0683594 4.26758-0.605469L5.52734-4.0625L11.2891-4.0625L12.5488-0.605469C12.7344-0.0683594 12.9883 0.126953 13.4961 0.126953C14.0137 0.126953 14.3457-0.185547 14.3457-0.673828C14.3457-0.839844 14.3164-0.986328 14.2383-1.20117L9.6582-13.3887C9.43359-13.9941 9.0332-14.2871 8.4082-14.2871C7.80273-14.2871 7.39258-13.9941 7.17773-13.3984L2.59766-1.19141C2.51953-0.976562 2.49023-0.830078 2.49023-0.664062C2.49023-0.175781 2.80273 0.126953 3.31055 0.126953ZM6.00586-5.53711L8.37891-12.1094L8.42773-12.1094L10.8008-5.53711Z"/>
  </g>
  <line id="" style="fill:none;stroke:#00AEEF;stroke-width:0.5;opacity:1.0;" x1="792.836" x2="792.836" y1="1919" y2="1933"/>
  <text style="stroke:none;fill:black;font-family:-apple-system,&quot;SF Pro Display&quot;,&quot;SF Pro Text&quot;,Helvetica,sans-serif;font-weight:bold;" transform="matrix(1 0 0 1 776 1953)">Margins</text>
  <text style="stroke:none;fill:black;font-family:-apple-system,&quot;SF Pro Display&quot;,&quot;SF Pro Text&quot;,Helvetica,sans-serif;" transform="matrix(1 0 0 1 776 1971)">Leading and trailing margins on the left and right side of each symbol</text>
  <text style="stroke:none;fill:black;font-family:-apple-system,&quot;SF Pro Display&quot;,&quot;SF Pro Text&quot;,Helvetica,sans-serif;" transform="matrix(1 0 0 1 776 1989)">can be adjusted by modifying the x-location of the margin guidelines.</text>
  <text style="stroke:none;fill:black;font-family:-apple-system,&quot;SF Pro Display&quot;,&quot;SF Pro Text&quot;,Helvetica,sans-serif;" transform="matrix(1 0 0 1 776 2007)">Modifications are automatically applied proportionally to all</text>
  <text style="stroke:none;fill:black;font-family:-apple-system,&quot;SF Pro Display&quot;,&quot;SF Pro Text&quot;,Helvetica,sans-serif;" transform="matrix(1 0 0 1 776 2025)">scales and weights.</text>
  <g id="" transform="matrix(1 0 0 1 1289 1933)">
   <path d="M2.8418 1.86523L4.54102 3.57422C5.40039 4.44336 6.38672 4.38477 7.31445 3.35938L17.4902-7.85156C17.7539-7.76367 18.0273-7.7832 18.3398-7.8418L19.4043-8.03711L20.0684-7.36328L20.0293-6.80664C19.9902-6.30859 20.1172-5.92773 20.6055-5.44922L21.3672-4.70703C21.8457-4.22852 22.4609-4.19922 22.9297-4.66797L25.8398-7.58789C26.3086-8.05664 26.2891-8.65234 25.8105-9.13086L25.0391-9.89258C24.5605-10.3711 24.1895-10.5273 23.7109-10.4883L23.1348-10.4395L22.4902-11.0742L22.7344-12.1973C22.8613-12.7637 22.7051-13.2031 22.1191-13.7891L19.9219-15.9766C16.582-19.2969 12.1484-19.2188 9.25781-16.3281C8.83789-15.918 8.80859-15.3418 9.04297-14.9512C9.27734-14.5898 9.73633-14.3555 10.3809-14.5215C11.8457-14.8633 13.3691-14.9219 14.7949-13.9844L14.209-12.5293C14.0137-12.0508 13.9844-11.6504 14.1113-11.2891L3.04688-0.898438C2.06055 0.0195312 1.98242 0.996094 2.8418 1.86523ZM10.752-15.957C13.1836-17.7344 16.4746-17.4316 18.7012-15.2051L21.1328-12.793C21.3672-12.5586 21.4062-12.373 21.3379-12.0312L21.0156-10.5469L22.5195-9.0625L23.5059-9.12109C23.7598-9.13086 23.8379-9.11133 24.0332-8.91602L24.6094-8.33984L22.168-5.89844L21.5918-6.47461C21.3965-6.66992 21.3672-6.74805 21.377-7.01172L21.4453-7.98828L19.9512-9.47266L18.4277-9.21875C18.1055-9.15039 17.959-9.17969 17.7148-9.41406L15.7129-11.416C15.459-11.6504 15.4297-11.8164 15.5859-12.1875L16.4648-14.2773C14.9023-15.7324 12.8711-16.3574 10.8398-15.7617C10.6836-15.7227 10.625-15.8496 10.752-15.957ZM5.27344 2.30469L4.10156 1.14258C3.63281 0.683594 3.74023 0.341797 4.14062-0.0195312L14.9512-10.1953L16.416-8.71094L6.42578 2.27539C6.07422 2.67578 5.74219 2.77344 5.27344 2.30469Z"/>
  </g>
  <text style="stroke:none;fill:black;font-family:-apple-system,&quot;SF Pro Display&quot;,&quot;SF Pro Text&quot;,Helvetica,sans-serif;font-weight:bold;" transform="matrix(1 0 0 1 1289 1953)">Exporting</text>
  <text style="stroke:none;fill:black;font-family:-apple-system,&quot;SF Pro Display&quot;,&quot;SF Pro Text&quot;,Helvetica,sans-serif;" transform="matrix(1 0 0 1 1289 1971)">Symbols should be outlined when exporting to ensure the</text>
  <text style="stroke:none;fill:black;font-family:-apple-system,&quot;SF Pro Display&quot;,&quot;SF Pro Text&quot;,Helvetica,sans-serif;" transform="matrix(1 0 0 1 1289 1989)">design is preserved when submitting to Xcode.</text>
  <text id="template-version" style="stroke:none;fill:black;font-family:-apple-system,&quot;SF Pro Display&quot;,&quot;SF Pro Text&quot;,Helvetica,sans-serif;text-anchor:end;" transform="matrix(1 0 0 1 3036 1933)">Template v.2.0</text>
  <text style="stroke:none;fill:black;font-family:-apple-system,&quot;SF Pro Display&quot;,&quot;SF Pro Text&quot;,Helvetica,sans-serif;text-anchor:end;" transform="matrix(1 0 0 1 3036 1951)">Requires Xcode 12 or greater</text>
  <text style="stroke:none;fill:black;font-family:-apple-system,&quot;SF Pro Display&quot;,&quot;SF Pro Text&quot;,Helvetica,sans-serif;" transform="matrix(1 0 0 1 263 726)">Small</text>
  <text style="stroke:none;fill:black;font-family:-apple-system,&quot;SF Pro Display&quot;,&quot;SF Pro Text&quot;,Helvetica,sans-serif;" transform="matrix(1 0 0 1 263 1156)">Medium</text>
  <text style="stroke:none;fill:black;font-family:-apple-system,&quot;SF Pro Display&quot;,&quot;SF Pro Text&quot;,Helvetica,sans-serif;" transform="matrix(1 0 0 1 263 1586)">Large</text>
 </g>
 <g id="Guides">
  <g id="H-reference" style="fill:#27AAE1;stroke:none;" transform="matrix(1 0 0 1 339 696)">
   <path d="M0.976562 0L3.66211 0L12.9883-24.4629L45.752-24.4629L55.127 0L57.7637 0L30.6152-70.459L28.125-70.459ZM29.3457-67.1387L29.4434-67.1387L44.873-26.709L13.8672-26.709Z"/>
  </g>
  <line id="Baseline-S" style="fill:none;stroke:#27AAE1;opacity:1;stroke-width:0.5;" x1="263" x2="3036" y1="696" y2="696"/>
  <line id="Capline-S" style="fill:none;stroke:#27AAE1;opacity:1;stroke-width:0.5;" x1="263" x2="3036" y1="625.541" y2="625.541"/>
  <g id="H-reference" style="fill:#27AAE1;stroke:none;" transform="matrix(1 0 0 1 339 1126)">
   <path d="M0.976562 0L3.66211 0L12.9883-24.4629L45.752-24.4629L55.127 0L57.7637 0L30.6152-70.459L28.125-70.459ZM29.3457-67.1387L29.4434-67.1387L44.873-26.709L13.8672-26.709Z"/>
  </g>
  <line id="Baseline-M" style="fill:none;stroke:#27AAE1;opacity:1;stroke-width:0.5;" x1="263" x2="3036" y1="1126" y2="1126"/>
  <line id="Capline-M" style="fill:none;stroke:#27AAE1;opacity:1;stroke-width:0.5;" x1="263" x2="3036" y1="1055.54" y2="1055.54"/>
  <g id="H-reference" style="fill:#27AAE1;stroke:none;" transform="matrix(1 0 0 1 339 1556)">
   <path d="M0.976562 0L3.66211 0L12.9883-24.4629L45.752-24.4629L55.127 0L57.7637 0L30.6152-70.459L28.125-70.459ZM29.3457-67.1387L29.4434-67.1387L44.873-26.709L13.8672-26.709Z"/>
  </g>
  <line id="Baseline-L" style="fill:none;stroke:#27AAE1;opacity:1;stroke-width:0.5;" x1="263" x2="3036" y1="1556" y2="1556"/>
  <line id="Capline-L" style="fill:none;stroke:#27AAE1;opacity:1;stroke-width:0.5;" x1="263" x2="3036" y1="1485.54" y2="1485.54"/>
  <line id="left-margin" x1="1406.7949410811411" x2="1406.7949410811411" y1="1030.79" y2="1150.12" style="fill:none;stroke:#00AEEF;stroke-width:0.5;opacity:1.0;"/>
  <line id="right-margin" x1="1496.4862119073928" x2="1496.4862119073928" y1="1030.79" y2="1150.12" style="fill:none;stroke:#00AEEF;stroke-width:0.5;opacity:1.0;"/>
 </g>
 <g id="Symbols">
  <g id="Black-L" transform="matrix(1.0,0.0,0.0,1.0,2879.793026866288,1472.9136588938643)">  <path stroke-miterlimit="4" stroke-linejoin="miter" stroke-linecap="butt" fill-opacity="1" stroke-dasharray="none" xmlns:xlink="http://www.w3.org/1999/xlink" fill-rule="nonzero" stroke-width="1" stroke-opacity="1" stroke="none" data-name="Layer 2" fill="#000000" d="M25.8,94.195L18.368,81.321C18.134,80.846,18.134,80.289,18.368,79.813L26.621,65.522C26.915,65.075,27.403,64.792,27.937,64.76L44.44,64.76C44.975,64.792,45.464,65.075,45.76,65.522L54.013,79.813C54.25,80.294,54.25,80.857,54.013,81.337L45.76,95.629C45.466,96.066,44.988,96.346,44.463,96.387L29.627,96.387C28.081,96.289,26.668,95.479,25.8,94.195ZM79.395,64.786L62.954,36.32C62.549,35.71,61.881,35.325,61.151,35.279L28.268,35.279C27.537,35.325,26.87,35.71,26.465,36.32L10.024,64.799C9.696,65.454,9.696,66.225,10.024,66.881L14.843,75.234L23.274,60.641C23.737,59.93,24.512,59.482,25.359,59.435L47.021,59.435C47.869,59.482,48.643,59.93,49.107,60.641L59.941,79.405C60.324,80.162,60.324,81.056,59.941,81.814L51.51,96.407L61.141,96.407C61.873,96.362,62.54,95.975,62.944,95.363L79.385,66.887C79.722,66.228,79.726,65.448,79.395,64.786ZM109.229,45.948L84.009,2.247C83.143,0.923,81.698,0.089,80.118,0L29.656,0C28.076,0.089,26.631,0.923,25.764,2.247L0.535,45.948C-0.178,47.36,-0.178,49.027,0.535,50.439L6.317,60.453L23.083,31.41C23.655,30.533,24.612,29.982,25.657,29.925L63.732,29.925C64.778,29.982,65.734,30.533,66.307,31.41L85.346,64.387C85.819,65.321,85.819,66.424,85.346,67.357L68.583,96.387L80.118,96.387C81.698,96.299,83.143,95.465,84.009,94.14L109.239,50.439C109.952,49.027,109.952,47.36,109.239,45.948ZM109.229,45.948"/>
</g>
  <g id="Heavy-L" transform="matrix(1.0,0.0,0.0,1.0,2583.083026866288,1472.9136588938643)">  <path fill-rule="nonzero" stroke-width="1" fill-opacity="1" xmlns:xlink="http://www.w3.org/1999/xlink" stroke-miterlimit="4" fill="#000000" stroke="none" stroke-linecap="butt" stroke-linejoin="miter" data-name="Layer 2" stroke-dasharray="none" stroke-opacity="1" d="M25.8,94.195L18.368,81.321C18.134,80.846,18.134,80.289,18.368,79.813L26.621,65.522C26.915,65.075,27.403,64.792,27.937,64.76L44.44,64.76C44.975,64.792,45.464,65.075,45.76,65.522L54.013,79.813C54.25,80.294,54.25,80.857,54.013,81.337L45.76,95.629C45.466,96.066,44.988,96.346,44.463,96.387L29.627,96.387C28.081,96.289,26.668,95.479,25.8,94.195ZM79.395,64.786L62.954,36.32C62.549,35.71,61.881,35.325,61.151,35.279L28.268,35.279C27.537,35.325,26.87,35.71,26.465,36.32L10.024,64.799C9.696,65.454,9.696,66.225,10.024,66.881L14.843,75.234L23.274,60.641C23.737,59.93,24.512,59.482,25.359,59.435L47.021,59.435C47.869,59.482,48.643,59.93,49.107,60.641L59.941,79.405C60.324,80.162,60.324,81.056,59.941,81.814L51.51,96.407L61.141,96.407C61.873,96.362,62.54,95.975,62.944,95.363L79.385,66.887C79.722,66.228,79.726,65.448,79.395,64.786ZM109.229,45.948L84.009,2.247C83.143,0.923,81.698,0.089,80.118,0L29.656,0C28.076,0.089,26.631,0.923,25.764,2.247L0.535,45.948C-0.178,47.36,-0.178,49.027,0.535,50.439L6.317,60.453L23.083,31.41C23.655,30.533,24.612,29.982,25.657,29.925L63.732,29.925C64.778,29.982,65.734,30.533,66.307,31.41L85.346,64.387C85.819,65.321,85.819,66.424,85.346,67.357L68.583,96.387L80.118,96.387C81.698,96.299,83.143,95.465,84.009,94.14L109.239,50.439C109.952,49.027,109.952,47.36,109.239,45.948ZM109.229,45.948"/>
</g>
  <g id="Bold-L" transform="matrix(1.0,0.0,0.0,1.0,2286.373026866288,1472.9136588938643)">  <path xmlns:xlink="http://www.w3.org/1999/xlink" stroke-linejoin="miter" stroke="none" stroke-width="1" stroke-opacity="1" stroke-miterlimit="4" stroke-linecap="butt" data-name="Layer 2" fill="#000000" stroke-dasharray="none" fill-rule="nonzero" fill-opacity="1" d="M25.8,94.195L18.368,81.321C18.134,80.846,18.134,80.289,18.368,79.813L26.621,65.522C26.915,65.075,27.403,64.792,27.937,64.76L44.44,64.76C44.975,64.792,45.464,65.075,45.76,65.522L54.013,79.813C54.25,80.294,54.25,80.857,54.013,81.337L45.76,95.629C45.466,96.066,44.988,96.346,44.463,96.387L29.627,96.387C28.081,96.289,26.668,95.479,25.8,94.195ZM79.395,64.786L62.954,36.32C62.549,35.71,61.881,35.325,61.151,35.279L28.268,35.279C27.537,35.325,26.87,35.71,26.465,36.32L10.024,64.799C9.696,65.454,9.696,66.225,10.024,66.881L14.843,75.234L23.274,60.641C23.737,59.93,24.512,59.482,25.359,59.435L47.021,59.435C47.869,59.482,48.643,59.93,49.107,60.641L59.941,79.405C60.324,80.162,60.324,81.056,59.941,81.814L51.51,96.407L61.141,96.407C61.873,96.362,62.54,95.975,62.944,95.363L79.385,66.887C79.722,66.228,79.726,65.448,79.395,64.786ZM109.229,45.948L84.009,2.247C83.143,0.923,81.698,0.089,80.118,0L29.656,0C28.076,0.089,26.631,0.923,25.764,2.247L0.535,45.948C-0.178,47.36,-0.178,49.027,0.535,50.439L6.317,60.453L23.083,31.41C23.655,30.533,24.612,29.982,25.657,29.925L63.732,29.925C64.778,29.982,65.734,30.533,66.307,31.41L85.346,64.387C85.819,65.321,85.819,66.424,85.346,67.357L68.583,96.387L80.118,96.387C81.698,96.299,83.143,95.465,84.009,94.14L109.239,50.439C109.952,49.027,109.952,47.36,109.239,45.948ZM109.229,45.948"/>
</g>
  <g id="Semibold-L" transform="matrix(1.0,0.0,0.0,1.0,1989.6630268662882,1472.9136588938643)">  <path stroke-opacity="1" stroke-dasharray="none" fill="#000000" fill-opacity="1" stroke-linecap="butt" xmlns:xlink="http://www.w3.org/1999/xlink" data-name="Layer 2" stroke="none" fill-rule="nonzero" stroke-miterlimit="4" stroke-linejoin="miter" stroke-width="1" d="M25.8,94.195L18.368,81.321C18.134,80.846,18.134,80.289,18.368,79.813L26.621,65.522C26.915,65.075,27.403,64.792,27.937,64.76L44.44,64.76C44.975,64.792,45.464,65.075,45.76,65.522L54.013,79.813C54.25,80.294,54.25,80.857,54.013,81.337L45.76,95.629C45.466,96.066,44.988,96.346,44.463,96.387L29.627,96.387C28.081,96.289,26.668,95.479,25.8,94.195ZM79.395,64.786L62.954,36.32C62.549,35.71,61.881,35.325,61.151,35.279L28.268,35.279C27.537,35.325,26.87,35.71,26.465,36.32L10.024,64.799C9.696,65.454,9.696,66.225,10.024,66.881L14.843,75.234L23.274,60.641C23.737,59.93,24.512,59.482,25.359,59.435L47.021,59.435C47.869,59.482,48.643,59.93,49.107,60.641L59.941,79.405C60.324,80.162,60.324,81.056,59.941,81.814L51.51,96.407L61.141,96.407C61.873,96.362,62.54,95.975,62.944,95.363L79.385,66.887C79.722,66.228,79.726,65.448,79.395,64.786ZM109.229,45.948L84.009,2.247C83.143,0.923,81.698,0.089,80.118,0L29.656,0C28.076,0.089,26.631,0.923,25.764,2.247L0.535,45.948C-0.178,47.36,-0.178,49.027,0.535,50.439L6.317,60.453L23.083,31.41C23.655,30.533,24.612,29.982,25.657,29.925L63.732,29.925C64.778,29.982,65.734,30.533,66.307,31.41L85.346,64.387C85.819,65.321,85.819,66.424,85.346,67.357L68.583,96.387L80.118,96.387C81.698,96.299,83.143,95.465,84.009,94.14L109.239,50.439C109.952,49.027,109.952,47.36,109.239,45.948ZM109.229,45.948"/>
</g>
  <g id="Medium-L" transform="matrix(1.0,0.0,0.0,1.0,1692.9530268662882,1472.9136588938643)">  <path stroke="none" data-name="Layer 2" stroke-linecap="butt" stroke-miterlimit="4" fill="#000000" stroke-dasharray="none" fill-rule="nonzero" stroke-width="1" fill-opacity="1" stroke-linejoin="miter" xmlns:xlink="http://www.w3.org/1999/xlink" stroke-opacity="1" d="M25.8,94.195L18.368,81.321C18.134,80.846,18.134,80.289,18.368,79.813L26.621,65.522C26.915,65.075,27.403,64.792,27.937,64.76L44.44,64.76C44.975,64.792,45.464,65.075,45.76,65.522L54.013,79.813C54.25,80.294,54.25,80.857,54.013,81.337L45.76,95.629C45.466,96.066,44.988,96.346,44.463,96.387L29.627,96.387C28.081,96.289,26.668,95.479,25.8,94.195ZM79.395,64.786L62.954,36.32C62.549,35.71,61.881,35.325,61.151,35.279L28.268,35.279C27.537,35.325,26.87,35.71,26.465,36.32L10.024,64.799C9.696,65.454,9.696,66.225,10.024,66.881L14.843,75.234L23.274,60.641C23.737,59.93,24.512,59.482,25.359,59.435L47.021,59.435C47.869,59.482,48.643,59.93,49.107,60.641L59.941,79.405C60.324,80.162,60.324,81.056,59.941,81.814L51.51,96.407L61.141,96.407C61.873,96.362,62.54,95.975,62.944,95.363L79.385,66.887C79.722,66.228,79.726,65.448,79.395,64.786ZM109.229,45.948L84.009,2.247C83.143,0.923,81.698,0.089,80.118,0L29.656,0C28.076,0.089,26.631,0.923,25.764,2.247L0.535,45.948C-0.178,47.36,-0.178,49.027,0.535,50.439L6.317,60.453L23.083,31.41C23.655,30.533,24.612,29.982,25.657,29.925L63.732,29.925C64.778,29.982,65.734,30.533,66.307,31.41L85.346,64.387C85.819,65.321,85.819,66.424,85.346,67.357L68.583,96.387L80.118,96.387C81.698,96.299,83.143,95.465,84.009,94.14L109.239,50.439C109.952,49.027,109.952,47.36,109.239,45.948ZM109.229,45.948"/>
</g>
  <g id="Regular-L" transform="matrix(1.0,0.0,0.0,1.0,1396.2430268662881,1472.9136588938643)">  <path xmlns:xlink="http://www.w3.org/1999/xlink" stroke-dasharray="none" stroke-miterlimit="4" stroke-width="1" data-name="Layer 2" stroke="none" fill-opacity="1" stroke-linejoin="miter" fill="#000000" stroke-linecap="butt" fill-rule="nonzero" stroke-opacity="1" d="M25.8,94.195L18.368,81.321C18.134,80.846,18.134,80.289,18.368,79.813L26.621,65.522C26.915,65.075,27.403,64.792,27.937,64.76L44.44,64.76C44.975,64.792,45.464,65.075,45.76,65.522L54.013,79.813C54.25,80.294,54.25,80.857,54.013,81.337L45.76,95.629C45.466,96.066,44.988,96.346,44.463,96.387L29.627,96.387C28.081,96.289,26.668,95.479,25.8,94.195ZM79.395,64.786L62.954,36.32C62.549,35.71,61.881,35.325,61.151,35.279L28.268,35.279C27.537,35.325,26.87,35.71,26.465,36.32L10.024,64.799C9.696,65.454,9.696,66.225,10.024,66.881L14.843,75.234L23.274,60.641C23.737,59.93,24.512,59.482,25.359,59.435L47.021,59.435C47.869,59.482,48.643,59.93,49.107,60.641L59.941,79.405C60.324,80.162,60.324,81.056,59.941,81.814L51.51,96.407L61.141,96.407C61.873,96.362,62.54,95.975,62.944,95.363L79.385,66.887C79.722,66.228,79.726,65.448,79.395,64.786ZM109.229,45.948L84.009,2.247C83.143,0.923,81.698,0.089,80.118,0L29.656,0C28.076,0.089,26.631,0.923,25.764,2.247L0.535,45.948C-0.178,47.36,-0.178,49.027,0.535,50.439L6.317,60.453L23.083,31.41C23.655,30.533,24.612,29.982,25.657,29.925L63.732,29.925C64.778,29.982,65.734,30.533,66.307,31.41L85.346,64.387C85.819,65.321,85.819,66.424,85.346,67.357L68.583,96.387L80.118,96.387C81.698,96.299,83.143,95.465,84.009,94.14L109.239,50.439C109.952,49.027,109.952,47.36,109.239,45.948ZM109.229,45.948"/>
</g>
  <g id="Light-L" transform="matrix(1.0,0.0,0.0,1.0,1099.5330268662883,1472.9136588938643)">  <path stroke-width="1" stroke-linejoin="miter" stroke-linecap="butt" xmlns:xlink="http://www.w3.org/1999/xlink" stroke-miterlimit="4" fill="#000000" fill-rule="nonzero" data-name="Layer 2" stroke="none" fill-opacity="1" stroke-opacity="1" stroke-dasharray="none" d="M25.8,94.195L18.368,81.321C18.134,80.846,18.134,80.289,18.368,79.813L26.621,65.522C26.915,65.075,27.403,64.792,27.937,64.76L44.44,64.76C44.975,64.792,45.464,65.075,45.76,65.522L54.013,79.813C54.25,80.294,54.25,80.857,54.013,81.337L45.76,95.629C45.466,96.066,44.988,96.346,44.463,96.387L29.627,96.387C28.081,96.289,26.668,95.479,25.8,94.195ZM79.395,64.786L62.954,36.32C62.549,35.71,61.881,35.325,61.151,35.279L28.268,35.279C27.537,35.325,26.87,35.71,26.465,36.32L10.024,64.799C9.696,65.454,9.696,66.225,10.024,66.881L14.843,75.234L23.274,60.641C23.737,59.93,24.512,59.482,25.359,59.435L47.021,59.435C47.869,59.482,48.643,59.93,49.107,60.641L59.941,79.405C60.324,80.162,60.324,81.056,59.941,81.814L51.51,96.407L61.141,96.407C61.873,96.362,62.54,95.975,62.944,95.363L79.385,66.887C79.722,66.228,79.726,65.448,79.395,64.786ZM109.229,45.948L84.009,2.247C83.143,0.923,81.698,0.089,80.118,0L29.656,0C28.076,0.089,26.631,0.923,25.764,2.247L0.535,45.948C-0.178,47.36,-0.178,49.027,0.535,50.439L6.317,60.453L23.083,31.41C23.655,30.533,24.612,29.982,25.657,29.925L63.732,29.925C64.778,29.982,65.734,30.533,66.307,31.41L85.346,64.387C85.819,65.321,85.819,66.424,85.346,67.357L68.583,96.387L80.118,96.387C81.698,96.299,83.143,95.465,84.009,94.14L109.239,50.439C109.952,49.027,109.952,47.36,109.239,45.948ZM109.229,45.948"/>
</g>
  <g id="Thin-L" transform="matrix(1.0,0.0,0.0,1.0,802.8230268662883,1472.9136588938643)">  <path stroke="none" fill="#000000" fill-opacity="1" stroke-opacity="1" stroke-dasharray="none" stroke-linejoin="miter" stroke-width="1" fill-rule="nonzero" xmlns:xlink="http://www.w3.org/1999/xlink" stroke-miterlimit="4" stroke-linecap="butt" data-name="Layer 2" d="M25.8,94.195L18.368,81.321C18.134,80.846,18.134,80.289,18.368,79.813L26.621,65.522C26.915,65.075,27.403,64.792,27.937,64.76L44.44,64.76C44.975,64.792,45.464,65.075,45.76,65.522L54.013,79.813C54.25,80.294,54.25,80.857,54.013,81.337L45.76,95.629C45.466,96.066,44.988,96.346,44.463,96.387L29.627,96.387C28.081,96.289,26.668,95.479,25.8,94.195ZM79.395,64.786L62.954,36.32C62.549,35.71,61.881,35.325,61.151,35.279L28.268,35.279C27.537,35.325,26.87,35.71,26.465,36.32L10.024,64.799C9.696,65.454,9.696,66.225,10.024,66.881L14.843,75.234L23.274,60.641C23.737,59.93,24.512,59.482,25.359,59.435L47.021,59.435C47.869,59.482,48.643,59.93,49.107,60.641L59.941,79.405C60.324,80.162,60.324,81.056,59.941,81.814L51.51,96.407L61.141,96.407C61.873,96.362,62.54,95.975,62.944,95.363L79.385,66.887C79.722,66.228,79.726,65.448,79.395,64.786ZM109.229,45.948L84.009,2.247C83.143,0.923,81.698,0.089,80.118,0L29.656,0C28.076,0.089,26.631,0.923,25.764,2.247L0.535,45.948C-0.178,47.36,-0.178,49.027,0.535,50.439L6.317,60.453L23.083,31.41C23.655,30.533,24.612,29.982,25.657,29.925L63.732,29.925C64.778,29.982,65.734,30.533,66.307,31.41L85.346,64.387C85.819,65.321,85.819,66.424,85.346,67.357L68.583,96.387L80.118,96.387C81.698,96.299,83.143,95.465,84.009,94.14L109.239,50.439C109.952,49.027,109.952,47.36,109.239,45.948ZM109.229,45.948"/>
</g>
  <g id="Ultralight-L" transform="matrix(1.0,0.0,0.0,1.0,506.11302686628824,1472.9136588938643)">  <path data-name="Layer 2" stroke-width="1" stroke-opacity="1" stroke-linejoin="miter" stroke-miterlimit="4" xmlns:xlink="http://www.w3.org/1999/xlink" stroke-dasharray="none" fill-rule="nonzero" fill-opacity="1" stroke-linecap="butt" fill="#000000" stroke="none" d="M25.8,94.195L18.368,81.321C18.134,80.846,18.134,80.289,18.368,79.813L26.621,65.522C26.915,65.075,27.403,64.792,27.937,64.76L44.44,64.76C44.975,64.792,45.464,65.075,45.76,65.522L54.013,79.813C54.25,80.294,54.25,80.857,54.013,81.337L45.76,95.629C45.466,96.066,44.988,96.346,44.463,96.387L29.627,96.387C28.081,96.289,26.668,95.479,25.8,94.195ZM79.395,64.786L62.954,36.32C62.549,35.71,61.881,35.325,61.151,35.279L28.268,35.279C27.537,35.325,26.87,35.71,26.465,36.32L10.024,64.799C9.696,65.454,9.696,66.225,10.024,66.881L14.843,75.234L23.274,60.641C23.737,59.93,24.512,59.482,25.359,59.435L47.021,59.435C47.869,59.482,48.643,59.93,49.107,60.641L59.941,79.405C60.324,80.162,60.324,81.056,59.941,81.814L51.51,96.407L61.141,96.407C61.873,96.362,62.54,95.975,62.944,95.363L79.385,66.887C79.722,66.228,79.726,65.448,79.395,64.786ZM109.229,45.948L84.009,2.247C83.143,0.923,81.698,0.089,80.118,0L29.656,0C28.076,0.089,26.631,0.923,25.764,2.247L0.535,45.948C-0.178,47.36,-0.178,49.027,0.535,50.439L6.317,60.453L23.083,31.41C23.655,30.533,24.612,29.982,25.657,29.925L63.732,29.925C64.778,29.982,65.734,30.533,66.307,31.41L85.346,64.387C85.819,65.321,85.819,66.424,85.346,67.357L68.583,96.387L80.118,96.387C81.698,96.299,83.143,95.465,84.009,94.14L109.239,50.439C109.952,49.027,109.952,47.36,109.239,45.948ZM109.229,45.948"/>
</g>
  <g id="Black-M" transform="matrix(1.0,0.0,0.0,1.0,2892.131958811076,1053.6720655487804)">  <path stroke-miterlimit="4" stroke-linejoin="miter" stroke-linecap="butt" fill-opacity="1" stroke-dasharray="none" xmlns:xlink="http://www.w3.org/1999/xlink" fill-rule="nonzero" stroke-width="1" stroke-opacity="1" stroke="none" data-name="Layer 2" fill="#000000" d="M20,73.02L14.238,63.04C14.058,62.671,14.058,62.239,14.238,61.871L20.636,50.792C20.864,50.445,21.242,50.227,21.657,50.201L34.45,50.201C34.865,50.227,35.244,50.445,35.473,50.792L41.871,61.871C42.054,62.243,42.054,62.68,41.871,63.052L35.473,74.131C35.245,74.47,34.875,74.686,34.467,74.719L22.966,74.719C21.768,74.642,20.673,74.015,20,73.02ZM61.546,50.222L48.801,28.155C48.487,27.682,47.97,27.383,47.404,27.348L21.913,27.348C21.347,27.383,20.829,27.682,20.515,28.155L7.77,50.232C7.516,50.74,7.516,51.337,7.77,51.845L11.506,58.321L18.042,47.009C18.401,46.458,19.001,46.11,19.658,46.074L36.451,46.074C37.108,46.11,37.708,46.458,38.067,47.009L46.466,61.554C46.762,62.141,46.762,62.834,46.466,63.422L39.93,74.734L47.396,74.734C47.963,74.699,48.481,74.399,48.794,73.925L61.539,51.851C61.8,51.34,61.803,50.735,61.546,50.222ZM84.674,35.619L65.124,1.742C64.452,0.715,63.332,0.069,62.107,0L22.989,0C21.764,0.069,20.644,0.715,19.972,1.742L0.415,35.619C-0.138,36.713,-0.138,38.006,0.415,39.1L4.897,46.863L17.894,24.349C18.338,23.669,19.079,23.242,19.89,23.198L49.405,23.198C50.215,23.242,50.957,23.669,51.401,24.349L66.159,49.912C66.526,50.636,66.526,51.491,66.159,52.215L53.165,74.719L62.107,74.719C63.332,74.65,64.452,74.004,65.124,72.977L84.681,39.1C85.234,38.006,85.234,36.713,84.681,35.619ZM84.674,35.619"/>
</g>
  <g id="Heavy-M" transform="matrix(1.0,0.0,0.0,1.0,2595.421958811076,1053.6720655487804)">  <path fill-rule="nonzero" stroke-width="1" fill-opacity="1" xmlns:xlink="http://www.w3.org/1999/xlink" stroke-miterlimit="4" fill="#000000" stroke="none" stroke-linecap="butt" stroke-linejoin="miter" data-name="Layer 2" stroke-dasharray="none" stroke-opacity="1" d="M20,73.02L14.238,63.04C14.058,62.671,14.058,62.239,14.238,61.871L20.636,50.792C20.864,50.445,21.242,50.227,21.657,50.201L34.45,50.201C34.865,50.227,35.244,50.445,35.473,50.792L41.871,61.871C42.054,62.243,42.054,62.68,41.871,63.052L35.473,74.131C35.245,74.47,34.875,74.686,34.467,74.719L22.966,74.719C21.768,74.642,20.673,74.015,20,73.02ZM61.546,50.222L48.801,28.155C48.487,27.682,47.97,27.383,47.404,27.348L21.913,27.348C21.347,27.383,20.829,27.682,20.515,28.155L7.77,50.232C7.516,50.74,7.516,51.337,7.77,51.845L11.506,58.321L18.042,47.009C18.401,46.458,19.001,46.11,19.658,46.074L36.451,46.074C37.108,46.11,37.708,46.458,38.067,47.009L46.466,61.554C46.762,62.141,46.762,62.834,46.466,63.422L39.93,74.734L47.396,74.734C47.963,74.699,48.481,74.399,48.794,73.925L61.539,51.851C61.8,51.34,61.803,50.735,61.546,50.222ZM84.674,35.619L65.124,1.742C64.452,0.715,63.332,0.069,62.107,0L22.989,0C21.764,0.069,20.644,0.715,19.972,1.742L0.415,35.619C-0.138,36.713,-0.138,38.006,0.415,39.1L4.897,46.863L17.894,24.349C18.338,23.669,19.079,23.242,19.89,23.198L49.405,23.198C50.215,23.242,50.957,23.669,51.401,24.349L66.159,49.912C66.526,50.636,66.526,51.491,66.159,52.215L53.165,74.719L62.107,74.719C63.332,74.65,64.452,74.004,65.124,72.977L84.681,39.1C85.234,38.006,85.234,36.713,84.681,35.619ZM84.674,35.619"/>
</g>
  <g id="Bold-M" transform="matrix(1.0,0.0,0.0,1.0,2298.711958811076,1053.6720655487804)">  <path xmlns:xlink="http://www.w3.org/1999/xlink" stroke-linejoin="miter" stroke="none" stroke-width="1" stroke-opacity="1" stroke-miterlimit="4" stroke-linecap="butt" data-name="Layer 2" fill="#000000" stroke-dasharray="none" fill-rule="nonzero" fill-opacity="1" d="M20,73.02L14.238,63.04C14.058,62.671,14.058,62.239,14.238,61.871L20.636,50.792C20.864,50.445,21.242,50.227,21.657,50.201L34.45,50.201C34.865,50.227,35.244,50.445,35.473,50.792L41.871,61.871C42.054,62.243,42.054,62.68,41.871,63.052L35.473,74.131C35.245,74.47,34.875,74.686,34.467,74.719L22.966,74.719C21.768,74.642,20.673,74.015,20,73.02ZM61.546,50.222L48.801,28.155C48.487,27.682,47.97,27.383,47.404,27.348L21.913,27.348C21.347,27.383,20.829,27.682,20.515,28.155L7.77,50.232C7.516,50.74,7.516,51.337,7.77,51.845L11.506,58.321L18.042,47.009C18.401,46.458,19.001,46.11,19.658,46.074L36.451,46.074C37.108,46.11,37.708,46.458,38.067,47.009L46.466,61.554C46.762,62.141,46.762,62.834,46.466,63.422L39.93,74.734L47.396,74.734C47.963,74.699,48.481,74.399,48.794,73.925L61.539,51.851C61.8,51.34,61.803,50.735,61.546,50.222ZM84.674,35.619L65.124,1.742C64.452,0.715,63.332,0.069,62.107,0L22.989,0C21.764,0.069,20.644,0.715,19.972,1.742L0.415,35.619C-0.138,36.713,-0.138,38.006,0.415,39.1L4.897,46.863L17.894,24.349C18.338,23.669,19.079,23.242,19.89,23.198L49.405,23.198C50.215,23.242,50.957,23.669,51.401,24.349L66.159,49.912C66.526,50.636,66.526,51.491,66.159,52.215L53.165,74.719L62.107,74.719C63.332,74.65,64.452,74.004,65.124,72.977L84.681,39.1C85.234,38.006,85.234,36.713,84.681,35.619ZM84.674,35.619"/>
</g>
  <g id="Semibold-M" transform="matrix(1.0,0.0,0.0,1.0,2002.001958811076,1053.6720655487804)">  <path stroke-opacity="1" stroke-dasharray="none" fill="#000000" fill-opacity="1" stroke-linecap="butt" xmlns:xlink="http://www.w3.org/1999/xlink" data-name="Layer 2" stroke="none" fill-rule="nonzero" stroke-miterlimit="4" stroke-linejoin="miter" stroke-width="1" d="M20,73.02L14.238,63.04C14.058,62.671,14.058,62.239,14.238,61.871L20.636,50.792C20.864,50.445,21.242,50.227,21.657,50.201L34.45,50.201C34.865,50.227,35.244,50.445,35.473,50.792L41.871,61.871C42.054,62.243,42.054,62.68,41.871,63.052L35.473,74.131C35.245,74.47,34.875,74.686,34.467,74.719L22.966,74.719C21.768,74.642,20.673,74.015,20,73.02ZM61.546,50.222L48.801,28.155C48.487,27.682,47.97,27.383,47.404,27.348L21.913,27.348C21.347,27.383,20.829,27.682,20.515,28.155L7.77,50.232C7.516,50.74,7.516,51.337,7.77,51.845L11.506,58.321L18.042,47.009C18.401,46.458,19.001,46.11,19.658,46.074L36.451,46.074C37.108,46.11,37.708,46.458,38.067,47.009L46.466,61.554C46.762,62.141,46.762,62.834,46.466,63.422L39.93,74.734L47.396,74.734C47.963,74.699,48.481,74.399,48.794,73.925L61.539,51.851C61.8,51.34,61.803,50.735,61.546,50.222ZM84.674,35.619L65.124,1.742C64.452,0.715,63.332,0.069,62.107,0L22.989,0C21.764,0.069,20.644,0.715,19.972,1.742L0.415,35.619C-0.138,36.713,-0.138,38.006,0.415,39.1L4.897,46.863L17.894,24.349C18.338,23.669,19.079,23.242,19.89,23.198L49.405,23.198C50.215,23.242,50.957,23.669,51.401,24.349L66.159,49.912C66.526,50.636,66.526,51.491,66.159,52.215L53.165,74.719L62.107,74.719C63.332,74.65,64.452,74.004,65.124,72.977L84.681,39.1C85.234,38.006,85.234,36.713,84.681,35.619ZM84.674,35.619"/>
</g>
  <g id="Medium-M" transform="matrix(1.0,0.0,0.0,1.0,1705.291958811076,1053.6720655487804)">  <path stroke="none" data-name="Layer 2" stroke-linecap="butt" stroke-miterlimit="4" fill="#000000" stroke-dasharray="none" fill-rule="nonzero" stroke-width="1" fill-opacity="1" stroke-linejoin="miter" xmlns:xlink="http://www.w3.org/1999/xlink" stroke-opacity="1" d="M20,73.02L14.238,63.04C14.058,62.671,14.058,62.239,14.238,61.871L20.636,50.792C20.864,50.445,21.242,50.227,21.657,50.201L34.45,50.201C34.865,50.227,35.244,50.445,35.473,50.792L41.871,61.871C42.054,62.243,42.054,62.68,41.871,63.052L35.473,74.131C35.245,74.47,34.875,74.686,34.467,74.719L22.966,74.719C21.768,74.642,20.673,74.015,20,73.02ZM61.546,50.222L48.801,28.155C48.487,27.682,47.97,27.383,47.404,27.348L21.913,27.348C21.347,27.383,20.829,27.682,20.515,28.155L7.77,50.232C7.516,50.74,7.516,51.337,7.77,51.845L11.506,58.321L18.042,47.009C18.401,46.458,19.001,46.11,19.658,46.074L36.451,46.074C37.108,46.11,37.708,46.458,38.067,47.009L46.466,61.554C46.762,62.141,46.762,62.834,46.466,63.422L39.93,74.734L47.396,74.734C47.963,74.699,48.481,74.399,48.794,73.925L61.539,51.851C61.8,51.34,61.803,50.735,61.546,50.222ZM84.674,35.619L65.124,1.742C64.452,0.715,63.332,0.069,62.107,0L22.989,0C21.764,0.069,20.644,0.715,19.972,1.742L0.415,35.619C-0.138,36.713,-0.138,38.006,0.415,39.1L4.897,46.863L17.894,24.349C18.338,23.669,19.079,23.242,19.89,23.198L49.405,23.198C50.215,23.242,50.957,23.669,51.401,24.349L66.159,49.912C66.526,50.636,66.526,51.491,66.159,52.215L53.165,74.719L62.107,74.719C63.332,74.65,64.452,74.004,65.124,72.977L84.681,39.1C85.234,38.006,85.234,36.713,84.681,35.619ZM84.674,35.619"/>
</g>
  <g id="Regular-M" transform="matrix(1.0,0.0,0.0,1.0,1408.581958811076,1053.6720655487804)">  <path xmlns:xlink="http://www.w3.org/1999/xlink" stroke-dasharray="none" stroke-miterlimit="4" stroke-width="1" data-name="Layer 2" stroke="none" fill-opacity="1" stroke-linejoin="miter" fill="#000000" stroke-linecap="butt" fill-rule="nonzero" stroke-opacity="1" d="M20,73.02L14.238,63.04C14.058,62.671,14.058,62.239,14.238,61.871L20.636,50.792C20.864,50.445,21.242,50.227,21.657,50.201L34.45,50.201C34.865,50.227,35.244,50.445,35.473,50.792L41.871,61.871C42.054,62.243,42.054,62.68,41.871,63.052L35.473,74.131C35.245,74.47,34.875,74.686,34.467,74.719L22.966,74.719C21.768,74.642,20.673,74.015,20,73.02ZM61.546,50.222L48.801,28.155C48.487,27.682,47.97,27.383,47.404,27.348L21.913,27.348C21.347,27.383,20.829,27.682,20.515,28.155L7.77,50.232C7.516,50.74,7.516,51.337,7.77,51.845L11.506,58.321L18.042,47.009C18.401,46.458,19.001,46.11,19.658,46.074L36.451,46.074C37.108,46.11,37.708,46.458,38.067,47.009L46.466,61.554C46.762,62.141,46.762,62.834,46.466,63.422L39.93,74.734L47.396,74.734C47.963,74.699,48.481,74.399,48.794,73.925L61.539,51.851C61.8,51.34,61.803,50.735,61.546,50.222ZM84.674,35.619L65.124,1.742C64.452,0.715,63.332,0.069,62.107,0L22.989,0C21.764,0.069,20.644,0.715,19.972,1.742L0.415,35.619C-0.138,36.713,-0.138,38.006,0.415,39.1L4.897,46.863L17.894,24.349C18.338,23.669,19.079,23.242,19.89,23.198L49.405,23.198C50.215,23.242,50.957,23.669,51.401,24.349L66.159,49.912C66.526,50.636,66.526,51.491,66.159,52.215L53.165,74.719L62.107,74.719C63.332,74.65,64.452,74.004,65.124,72.977L84.681,39.1C85.234,38.006,85.234,36.713,84.681,35.619ZM84.674,35.619"/>
</g>
  <g id="Light-M" transform="matrix(1.0,0.0,0.0,1.0,1111.8719588110762,1053.6720655487804)">  <path stroke-width="1" stroke-linejoin="miter" stroke-linecap="butt" xmlns:xlink="http://www.w3.org/1999/xlink" stroke-miterlimit="4" fill="#000000" fill-rule="nonzero" data-name="Layer 2" stroke="none" fill-opacity="1" stroke-opacity="1" stroke-dasharray="none" d="M20,73.02L14.238,63.04C14.058,62.671,14.058,62.239,14.238,61.871L20.636,50.792C20.864,50.445,21.242,50.227,21.657,50.201L34.45,50.201C34.865,50.227,35.244,50.445,35.473,50.792L41.871,61.871C42.054,62.243,42.054,62.68,41.871,63.052L35.473,74.131C35.245,74.47,34.875,74.686,34.467,74.719L22.966,74.719C21.768,74.642,20.673,74.015,20,73.02ZM61.546,50.222L48.801,28.155C48.487,27.682,47.97,27.383,47.404,27.348L21.913,27.348C21.347,27.383,20.829,27.682,20.515,28.155L7.77,50.232C7.516,50.74,7.516,51.337,7.77,51.845L11.506,58.321L18.042,47.009C18.401,46.458,19.001,46.11,19.658,46.074L36.451,46.074C37.108,46.11,37.708,46.458,38.067,47.009L46.466,61.554C46.762,62.141,46.762,62.834,46.466,63.422L39.93,74.734L47.396,74.734C47.963,74.699,48.481,74.399,48.794,73.925L61.539,51.851C61.8,51.34,61.803,50.735,61.546,50.222ZM84.674,35.619L65.124,1.742C64.452,0.715,63.332,0.069,62.107,0L22.989,0C21.764,0.069,20.644,0.715,19.972,1.742L0.415,35.619C-0.138,36.713,-0.138,38.006,0.415,39.1L4.897,46.863L17.894,24.349C18.338,23.669,19.079,23.242,19.89,23.198L49.405,23.198C50.215,23.242,50.957,23.669,51.401,24.349L66.159,49.912C66.526,50.636,66.526,51.491,66.159,52.215L53.165,74.719L62.107,74.719C63.332,74.65,64.452,74.004,65.124,72.977L84.681,39.1C85.234,38.006,85.234,36.713,84.681,35.619ZM84.674,35.619"/>
</g>
  <g id="Thin-M" transform="matrix(1.0,0.0,0.0,1.0,815.1619588110761,1053.6720655487804)">  <path stroke="none" fill="#000000" fill-opacity="1" stroke-opacity="1" stroke-dasharray="none" stroke-linejoin="miter" stroke-width="1" fill-rule="nonzero" xmlns:xlink="http://www.w3.org/1999/xlink" stroke-miterlimit="4" stroke-linecap="butt" data-name="Layer 2" d="M20,73.02L14.238,63.04C14.058,62.671,14.058,62.239,14.238,61.871L20.636,50.792C20.864,50.445,21.242,50.227,21.657,50.201L34.45,50.201C34.865,50.227,35.244,50.445,35.473,50.792L41.871,61.871C42.054,62.243,42.054,62.68,41.871,63.052L35.473,74.131C35.245,74.47,34.875,74.686,34.467,74.719L22.966,74.719C21.768,74.642,20.673,74.015,20,73.02ZM61.546,50.222L48.801,28.155C48.487,27.682,47.97,27.383,47.404,27.348L21.913,27.348C21.347,27.383,20.829,27.682,20.515,28.155L7.77,50.232C7.516,50.74,7.516,51.337,7.77,51.845L11.506,58.321L18.042,47.009C18.401,46.458,19.001,46.11,19.658,46.074L36.451,46.074C37.108,46.11,37.708,46.458,38.067,47.009L46.466,61.554C46.762,62.141,46.762,62.834,46.466,63.422L39.93,74.734L47.396,74.734C47.963,74.699,48.481,74.399,48.794,73.925L61.539,51.851C61.8,51.34,61.803,50.735,61.546,50.222ZM84.674,35.619L65.124,1.742C64.452,0.715,63.332,0.069,62.107,0L22.989,0C21.764,0.069,20.644,0.715,19.972,1.742L0.415,35.619C-0.138,36.713,-0.138,38.006,0.415,39.1L4.897,46.863L17.894,24.349C18.338,23.669,19.079,23.242,19.89,23.198L49.405,23.198C50.215,23.242,50.957,23.669,51.401,24.349L66.159,49.912C66.526,50.636,66.526,51.491,66.159,52.215L53.165,74.719L62.107,74.719C63.332,74.65,64.452,74.004,65.124,72.977L84.681,39.1C85.234,38.006,85.234,36.713,84.681,35.619ZM84.674,35.619"/>
</g>
  <g id="Ultralight-M" transform="matrix(1.0,0.0,0.0,1.0,518.4519588110761,1053.6720655487804)">  <path data-name="Layer 2" stroke-width="1" stroke-opacity="1" stroke-linejoin="miter" stroke-miterlimit="4" xmlns:xlink="http://www.w3.org/1999/xlink" stroke-dasharray="none" fill-rule="nonzero" fill-opacity="1" stroke-linecap="butt" fill="#000000" stroke="none" d="M20,73.02L14.238,63.04C14.058,62.671,14.058,62.239,14.238,61.871L20.636,50.792C20.864,50.445,21.242,50.227,21.657,50.201L34.45,50.201C34.865,50.227,35.244,50.445,35.473,50.792L41.871,61.871C42.054,62.243,42.054,62.68,41.871,63.052L35.473,74.131C35.245,74.47,34.875,74.686,34.467,74.719L22.966,74.719C21.768,74.642,20.673,74.015,20,73.02ZM61.546,50.222L48.801,28.155C48.487,27.682,47.97,27.383,47.404,27.348L21.913,27.348C21.347,27.383,20.829,27.682,20.515,28.155L7.77,50.232C7.516,50.74,7.516,51.337,7.77,51.845L11.506,58.321L18.042,47.009C18.401,46.458,19.001,46.11,19.658,46.074L36.451,46.074C37.108,46.11,37.708,46.458,38.067,47.009L46.466,61.554C46.762,62.141,46.762,62.834,46.466,63.422L39.93,74.734L47.396,74.734C47.963,74.699,48.481,74.399,48.794,73.925L61.539,51.851C61.8,51.34,61.803,50.735,61.546,50.222ZM84.674,35.619L65.124,1.742C64.452,0.715,63.332,0.069,62.107,0L22.989,0C21.764,0.069,20.644,0.715,19.972,1.742L0.415,35.619C-0.138,36.713,-0.138,38.006,0.415,39.1L4.897,46.863L17.894,24.349C18.338,23.669,19.079,23.242,19.89,23.198L49.405,23.198C50.215,23.242,50.957,23.669,51.401,24.349L66.159,49.912C66.526,50.636,66.526,51.491,66.159,52.215L53.165,74.719L62.107,74.719C63.332,74.65,64.452,74.004,65.124,72.977L84.681,39.1C85.234,38.006,85.234,36.713,84.681,35.619ZM84.674,35.619"/>
</g>
  <g id="Black-S" transform="matrix(1.0,0.0,0.0,1.0,2901.3648837490723,631.7223215629764)">  <path stroke-miterlimit="4" stroke-linejoin="miter" stroke-linecap="butt" fill-opacity="1" stroke-dasharray="none" xmlns:xlink="http://www.w3.org/1999/xlink" fill-rule="nonzero" stroke-width="1" stroke-opacity="1" stroke="none" data-name="Layer 2" fill="#000000" d="M15.66,57.174L11.149,49.36C11.007,49.071,11.007,48.733,11.149,48.445L16.158,39.77C16.337,39.499,16.633,39.327,16.957,39.308L26.974,39.308C27.299,39.327,27.596,39.499,27.775,39.77L32.785,48.445C32.928,48.736,32.928,49.078,32.785,49.37L27.775,58.044C27.597,58.31,27.307,58.479,26.988,58.505L17.983,58.505C17.044,58.445,16.187,57.954,15.66,57.174ZM48.191,39.323L38.211,22.045C37.966,21.675,37.561,21.441,37.117,21.414L17.158,21.414C16.714,21.441,16.309,21.675,16.064,22.045L6.084,39.331C5.885,39.729,5.885,40.197,6.084,40.595L9.009,45.665L14.127,36.808C14.408,36.376,14.878,36.104,15.392,36.076L28.541,36.076C29.055,36.104,29.525,36.376,29.807,36.808L36.383,48.197C36.615,48.657,36.615,49.199,36.383,49.659L31.265,58.517L37.111,58.517C37.555,58.489,37.961,58.255,38.205,57.883L48.185,40.599C48.39,40.199,48.392,39.725,48.191,39.323ZM66.3,27.889L50.992,1.364C50.466,0.56,49.589,0.054,48.63,0L18,0C17.041,0.054,16.165,0.56,15.638,1.364L0.325,27.889C-0.108,28.747,-0.108,29.758,0.325,30.616L3.834,36.694L14.011,19.065C14.358,18.533,14.939,18.198,15.573,18.164L38.684,18.164C39.319,18.198,39.899,18.533,40.247,19.065L51.803,39.081C52.09,39.648,52.09,40.318,51.803,40.884L41.628,58.505L48.63,58.505C49.589,58.451,50.466,57.945,50.992,57.141L66.305,30.616C66.738,29.758,66.738,28.747,66.305,27.889ZM66.3,27.889"/>
</g>
  <g id="Heavy-S" transform="matrix(1.0,0.0,0.0,1.0,2604.6548837490723,631.7223215629764)">  <path fill-rule="nonzero" stroke-width="1" fill-opacity="1" xmlns:xlink="http://www.w3.org/1999/xlink" stroke-miterlimit="4" fill="#000000" stroke="none" stroke-linecap="butt" stroke-linejoin="miter" data-name="Layer 2" stroke-dasharray="none" stroke-opacity="1" d="M15.66,57.174L11.149,49.36C11.007,49.071,11.007,48.733,11.149,48.445L16.158,39.77C16.337,39.499,16.633,39.327,16.957,39.308L26.974,39.308C27.299,39.327,27.596,39.499,27.775,39.77L32.785,48.445C32.928,48.736,32.928,49.078,32.785,49.37L27.775,58.044C27.597,58.31,27.307,58.479,26.988,58.505L17.983,58.505C17.044,58.445,16.187,57.954,15.66,57.174ZM48.191,39.323L38.211,22.045C37.966,21.675,37.561,21.441,37.117,21.414L17.158,21.414C16.714,21.441,16.309,21.675,16.064,22.045L6.084,39.331C5.885,39.729,5.885,40.197,6.084,40.595L9.009,45.665L14.127,36.808C14.408,36.376,14.878,36.104,15.392,36.076L28.541,36.076C29.055,36.104,29.525,36.376,29.807,36.808L36.383,48.197C36.615,48.657,36.615,49.199,36.383,49.659L31.265,58.517L37.111,58.517C37.555,58.489,37.961,58.255,38.205,57.883L48.185,40.599C48.39,40.199,48.392,39.725,48.191,39.323ZM66.3,27.889L50.992,1.364C50.466,0.56,49.589,0.054,48.63,0L18,0C17.041,0.054,16.165,0.56,15.638,1.364L0.325,27.889C-0.108,28.747,-0.108,29.758,0.325,30.616L3.834,36.694L14.011,19.065C14.358,18.533,14.939,18.198,15.573,18.164L38.684,18.164C39.319,18.198,39.899,18.533,40.247,19.065L51.803,39.081C52.09,39.648,52.09,40.318,51.803,40.884L41.628,58.505L48.63,58.505C49.589,58.451,50.466,57.945,50.992,57.141L66.305,30.616C66.738,29.758,66.738,28.747,66.305,27.889ZM66.3,27.889"/>
</g>
  <g id="Bold-S" transform="matrix(1.0,0.0,0.0,1.0,2307.9448837490722,631.7223215629764)">  <path xmlns:xlink="http://www.w3.org/1999/xlink" stroke-linejoin="miter" stroke="none" stroke-width="1" stroke-opacity="1" stroke-miterlimit="4" stroke-linecap="butt" data-name="Layer 2" fill="#000000" stroke-dasharray="none" fill-rule="nonzero" fill-opacity="1" d="M15.66,57.174L11.149,49.36C11.007,49.071,11.007,48.733,11.149,48.445L16.158,39.77C16.337,39.499,16.633,39.327,16.957,39.308L26.974,39.308C27.299,39.327,27.596,39.499,27.775,39.77L32.785,48.445C32.928,48.736,32.928,49.078,32.785,49.37L27.775,58.044C27.597,58.31,27.307,58.479,26.988,58.505L17.983,58.505C17.044,58.445,16.187,57.954,15.66,57.174ZM48.191,39.323L38.211,22.045C37.966,21.675,37.561,21.441,37.117,21.414L17.158,21.414C16.714,21.441,16.309,21.675,16.064,22.045L6.084,39.331C5.885,39.729,5.885,40.197,6.084,40.595L9.009,45.665L14.127,36.808C14.408,36.376,14.878,36.104,15.392,36.076L28.541,36.076C29.055,36.104,29.525,36.376,29.807,36.808L36.383,48.197C36.615,48.657,36.615,49.199,36.383,49.659L31.265,58.517L37.111,58.517C37.555,58.489,37.961,58.255,38.205,57.883L48.185,40.599C48.39,40.199,48.392,39.725,48.191,39.323ZM66.3,27.889L50.992,1.364C50.466,0.56,49.589,0.054,48.63,0L18,0C17.041,0.054,16.165,0.56,15.638,1.364L0.325,27.889C-0.108,28.747,-0.108,29.758,0.325,30.616L3.834,36.694L14.011,19.065C14.358,18.533,14.939,18.198,15.573,18.164L38.684,18.164C39.319,18.198,39.899,18.533,40.247,19.065L51.803,39.081C52.09,39.648,52.09,40.318,51.803,40.884L41.628,58.505L48.63,58.505C49.589,58.451,50.466,57.945,50.992,57.141L66.305,30.616C66.738,29.758,66.738,28.747,66.305,27.889ZM66.3,27.889"/>
</g>
  <g id="Semibold-S" transform="matrix(1.0,0.0,0.0,1.0,2011.2348837490727,631.7223215629764)">  <path stroke-opacity="1" stroke-dasharray="none" fill="#000000" fill-opacity="1" stroke-linecap="butt" xmlns:xlink="http://www.w3.org/1999/xlink" data-name="Layer 2" stroke="none" fill-rule="nonzero" stroke-miterlimit="4" stroke-linejoin="miter" stroke-width="1" d="M15.66,57.174L11.149,49.36C11.007,49.071,11.007,48.733,11.149,48.445L16.158,39.77C16.337,39.499,16.633,39.327,16.957,39.308L26.974,39.308C27.299,39.327,27.596,39.499,27.775,39.77L32.785,48.445C32.928,48.736,32.928,49.078,32.785,49.37L27.775,58.044C27.597,58.31,27.307,58.479,26.988,58.505L17.983,58.505C17.044,58.445,16.187,57.954,15.66,57.174ZM48.191,39.323L38.211,22.045C37.966,21.675,37.561,21.441,37.117,21.414L17.158,21.414C16.714,21.441,16.309,21.675,16.064,22.045L6.084,39.331C5.885,39.729,5.885,40.197,6.084,40.595L9.009,45.665L14.127,36.808C14.408,36.376,14.878,36.104,15.392,36.076L28.541,36.076C29.055,36.104,29.525,36.376,29.807,36.808L36.383,48.197C36.615,48.657,36.615,49.199,36.383,49.659L31.265,58.517L37.111,58.517C37.555,58.489,37.961,58.255,38.205,57.883L48.185,40.599C48.39,40.199,48.392,39.725,48.191,39.323ZM66.3,27.889L50.992,1.364C50.466,0.56,49.589,0.054,48.63,0L18,0C17.041,0.054,16.165,0.56,15.638,1.364L0.325,27.889C-0.108,28.747,-0.108,29.758,0.325,30.616L3.834,36.694L14.011,19.065C14.358,18.533,14.939,18.198,15.573,18.164L38.684,18.164C39.319,18.198,39.899,18.533,40.247,19.065L51.803,39.081C52.09,39.648,52.09,40.318,51.803,40.884L41.628,58.505L48.63,58.505C49.589,58.451,50.466,57.945,50.992,57.141L66.305,30.616C66.738,29.758,66.738,28.747,66.305,27.889ZM66.3,27.889"/>
</g>
  <g id="Medium-S" transform="matrix(1.0,0.0,0.0,1.0,1714.5248837490726,631.7223215629764)">  <path stroke="none" data-name="Layer 2" stroke-linecap="butt" stroke-miterlimit="4" fill="#000000" stroke-dasharray="none" fill-rule="nonzero" stroke-width="1" fill-opacity="1" stroke-linejoin="miter" xmlns:xlink="http://www.w3.org/1999/xlink" stroke-opacity="1" d="M15.66,57.174L11.149,49.36C11.007,49.071,11.007,48.733,11.149,48.445L16.158,39.77C16.337,39.499,16.633,39.327,16.957,39.308L26.974,39.308C27.299,39.327,27.596,39.499,27.775,39.77L32.785,48.445C32.928,48.736,32.928,49.078,32.785,49.37L27.775,58.044C27.597,58.31,27.307,58.479,26.988,58.505L17.983,58.505C17.044,58.445,16.187,57.954,15.66,57.174ZM48.191,39.323L38.211,22.045C37.966,21.675,37.561,21.441,37.117,21.414L17.158,21.414C16.714,21.441,16.309,21.675,16.064,22.045L6.084,39.331C5.885,39.729,5.885,40.197,6.084,40.595L9.009,45.665L14.127,36.808C14.408,36.376,14.878,36.104,15.392,36.076L28.541,36.076C29.055,36.104,29.525,36.376,29.807,36.808L36.383,48.197C36.615,48.657,36.615,49.199,36.383,49.659L31.265,58.517L37.111,58.517C37.555,58.489,37.961,58.255,38.205,57.883L48.185,40.599C48.39,40.199,48.392,39.725,48.191,39.323ZM66.3,27.889L50.992,1.364C50.466,0.56,49.589,0.054,48.63,0L18,0C17.041,0.054,16.165,0.56,15.638,1.364L0.325,27.889C-0.108,28.747,-0.108,29.758,0.325,30.616L3.834,36.694L14.011,19.065C14.358,18.533,14.939,18.198,15.573,18.164L38.684,18.164C39.319,18.198,39.899,18.533,40.247,19.065L51.803,39.081C52.09,39.648,52.09,40.318,51.803,40.884L41.628,58.505L48.63,58.505C49.589,58.451,50.466,57.945,50.992,57.141L66.305,30.616C66.738,29.758,66.738,28.747,66.305,27.889ZM66.3,27.889"/>
</g>
  <g id="Regular-S" transform="matrix(1.0,0.0,0.0,1.0,1417.8148837490726,631.7223215629764)">  <path xmlns:xlink="http://www.w3.org/1999/xlink" stroke-dasharray="none" stroke-miterlimit="4" stroke-width="1" data-name="Layer 2" stroke="none" fill-opacity="1" stroke-linejoin="miter" fill="#000000" stroke-linecap="butt" fill-rule="nonzero" stroke-opacity="1" d="M15.66,57.174L11.149,49.36C11.007,49.071,11.007,48.733,11.149,48.445L16.158,39.77C16.337,39.499,16.633,39.327,16.957,39.308L26.974,39.308C27.299,39.327,27.596,39.499,27.775,39.77L32.785,48.445C32.928,48.736,32.928,49.078,32.785,49.37L27.775,58.044C27.597,58.31,27.307,58.479,26.988,58.505L17.983,58.505C17.044,58.445,16.187,57.954,15.66,57.174ZM48.191,39.323L38.211,22.045C37.966,21.675,37.561,21.441,37.117,21.414L17.158,21.414C16.714,21.441,16.309,21.675,16.064,22.045L6.084,39.331C5.885,39.729,5.885,40.197,6.084,40.595L9.009,45.665L14.127,36.808C14.408,36.376,14.878,36.104,15.392,36.076L28.541,36.076C29.055,36.104,29.525,36.376,29.807,36.808L36.383,48.197C36.615,48.657,36.615,49.199,36.383,49.659L31.265,58.517L37.111,58.517C37.555,58.489,37.961,58.255,38.205,57.883L48.185,40.599C48.39,40.199,48.392,39.725,48.191,39.323ZM66.3,27.889L50.992,1.364C50.466,0.56,49.589,0.054,48.63,0L18,0C17.041,0.054,16.165,0.56,15.638,1.364L0.325,27.889C-0.108,28.747,-0.108,29.758,0.325,30.616L3.834,36.694L14.011,19.065C14.358,18.533,14.939,18.198,15.573,18.164L38.684,18.164C39.319,18.198,39.899,18.533,40.247,19.065L51.803,39.081C52.09,39.648,52.09,40.318,51.803,40.884L41.628,58.505L48.63,58.505C49.589,58.451,50.466,57.945,50.992,57.141L66.305,30.616C66.738,29.758,66.738,28.747,66.305,27.889ZM66.3,27.889"/>
</g>
  <g id="Light-S" transform="matrix(1.0,0.0,0.0,1.0,1121.1048837490728,631.7223215629764)">  <path stroke-width="1" stroke-linejoin="miter" stroke-linecap="butt" xmlns:xlink="http://www.w3.org/1999/xlink" stroke-miterlimit="4" fill="#000000" fill-rule="nonzero" data-name="Layer 2" stroke="none" fill-opacity="1" stroke-opacity="1" stroke-dasharray="none" d="M15.66,57.174L11.149,49.36C11.007,49.071,11.007,48.733,11.149,48.445L16.158,39.77C16.337,39.499,16.633,39.327,16.957,39.308L26.974,39.308C27.299,39.327,27.596,39.499,27.775,39.77L32.785,48.445C32.928,48.736,32.928,49.078,32.785,49.37L27.775,58.044C27.597,58.31,27.307,58.479,26.988,58.505L17.983,58.505C17.044,58.445,16.187,57.954,15.66,57.174ZM48.191,39.323L38.211,22.045C37.966,21.675,37.561,21.441,37.117,21.414L17.158,21.414C16.714,21.441,16.309,21.675,16.064,22.045L6.084,39.331C5.885,39.729,5.885,40.197,6.084,40.595L9.009,45.665L14.127,36.808C14.408,36.376,14.878,36.104,15.392,36.076L28.541,36.076C29.055,36.104,29.525,36.376,29.807,36.808L36.383,48.197C36.615,48.657,36.615,49.199,36.383,49.659L31.265,58.517L37.111,58.517C37.555,58.489,37.961,58.255,38.205,57.883L48.185,40.599C48.39,40.199,48.392,39.725,48.191,39.323ZM66.3,27.889L50.992,1.364C50.466,0.56,49.589,0.054,48.63,0L18,0C17.041,0.054,16.165,0.56,15.638,1.364L0.325,27.889C-0.108,28.747,-0.108,29.758,0.325,30.616L3.834,36.694L14.011,19.065C14.358,18.533,14.939,18.198,15.573,18.164L38.684,18.164C39.319,18.198,39.899,18.533,40.247,19.065L51.803,39.081C52.09,39.648,52.09,40.318,51.803,40.884L41.628,58.505L48.63,58.505C49.589,58.451,50.466,57.945,50.992,57.141L66.305,30.616C66.738,29.758,66.738,28.747,66.305,27.889ZM66.3,27.889"/>
</g>
  <g id="Thin-S" transform="matrix(1.0,0.0,0.0,1.0,824.3948837490726,631.7223215629764)">  <path stroke="none" fill="#000000" fill-opacity="1" stroke-opacity="1" stroke-dasharray="none" stroke-linejoin="miter" stroke-width="1" fill-rule="nonzero" xmlns:xlink="http://www.w3.org/1999/xlink" stroke-miterlimit="4" stroke-linecap="butt" data-name="Layer 2" d="M15.66,57.174L11.149,49.36C11.007,49.071,11.007,48.733,11.149,48.445L16.158,39.77C16.337,39.499,16.633,39.327,16.957,39.308L26.974,39.308C27.299,39.327,27.596,39.499,27.775,39.77L32.785,48.445C32.928,48.736,32.928,49.078,32.785,49.37L27.775,58.044C27.597,58.31,27.307,58.479,26.988,58.505L17.983,58.505C17.044,58.445,16.187,57.954,15.66,57.174ZM48.191,39.323L38.211,22.045C37.966,21.675,37.561,21.441,37.117,21.414L17.158,21.414C16.714,21.441,16.309,21.675,16.064,22.045L6.084,39.331C5.885,39.729,5.885,40.197,6.084,40.595L9.009,45.665L14.127,36.808C14.408,36.376,14.878,36.104,15.392,36.076L28.541,36.076C29.055,36.104,29.525,36.376,29.807,36.808L36.383,48.197C36.615,48.657,36.615,49.199,36.383,49.659L31.265,58.517L37.111,58.517C37.555,58.489,37.961,58.255,38.205,57.883L48.185,40.599C48.39,40.199,48.392,39.725,48.191,39.323ZM66.3,27.889L50.992,1.364C50.466,0.56,49.589,0.054,48.63,0L18,0C17.041,0.054,16.165,0.56,15.638,1.364L0.325,27.889C-0.108,28.747,-0.108,29.758,0.325,30.616L3.834,36.694L14.011,19.065C14.358,18.533,14.939,18.198,15.573,18.164L38.684,18.164C39.319,18.198,39.899,18.533,40.247,19.065L51.803,39.081C52.09,39.648,52.09,40.318,51.803,40.884L41.628,58.505L48.63,58.505C49.589,58.451,50.466,57.945,50.992,57.141L66.305,30.616C66.738,29.758,66.738,28.747,66.305,27.889ZM66.3,27.889"/>
</g>
  <g id="Ultralight-S" transform="matrix(1.0,0.0,0.0,1.0,527.6848837490726,631.7223215629764)">  <path data-name="Layer 2" stroke-width="1" stroke-opacity="1" stroke-linejoin="miter" stroke-miterlimit="4" xmlns:xlink="http://www.w3.org/1999/xlink" stroke-dasharray="none" fill-rule="nonzero" fill-opacity="1" stroke-linecap="butt" fill="#000000" stroke="none" d="M15.66,57.174L11.149,49.36C11.007,49.071,11.007,48.733,11.149,48.445L16.158,39.77C16.337,39.499,16.633,39.327,16.957,39.308L26.974,39.308C27.299,39.327,27.596,39.499,27.775,39.77L32.785,48.445C32.928,48.736,32.928,49.078,32.785,49.37L27.775,58.044C27.597,58.31,27.307,58.479,26.988,58.505L17.983,58.505C17.044,58.445,16.187,57.954,15.66,57.174ZM48.191,39.323L38.211,22.045C37.966,21.675,37.561,21.441,37.117,21.414L17.158,21.414C16.714,21.441,16.309,21.675,16.064,22.045L6.084,39.331C5.885,39.729,5.885,40.197,6.084,40.595L9.009,45.665L14.127,36.808C14.408,36.376,14.878,36.104,15.392,36.076L28.541,36.076C29.055,36.104,29.525,36.376,29.807,36.808L36.383,48.197C36.615,48.657,36.615,49.199,36.383,49.659L31.265,58.517L37.111,58.517C37.555,58.489,37.961,58.255,38.205,57.883L48.185,40.599C48.39,40.199,48.392,39.725,48.191,39.323ZM66.3,27.889L50.992,1.364C50.466,0.56,49.589,0.054,48.63,0L18,0C17.041,0.054,16.165,0.56,15.638,1.364L0.325,27.889C-0.108,28.747,-0.108,29.758,0.325,30.616L3.834,36.694L14.011,19.065C14.358,18.533,14.939,18.198,15.573,18.164L38.684,18.164C39.319,18.198,39.899,18.533,40.247,19.065L51.803,39.081C52.09,39.648,52.09,40.318,51.803,40.884L41.628,58.505L48.63,58.505C49.589,58.451,50.466,57.945,50.992,57.141L66.305,30.616C66.738,29.758,66.738,28.747,66.305,27.889ZM66.3,27.889"/>
</g>
 </g>
</svg>
